<mxfile host="Electron" modified="2024-05-03T16:32:05.137Z" agent="Mozilla/5.0 (Windows NT 10.0; Win64; x64) AppleWebKit/537.36 (KHTML, like Gecko) draw.io/23.1.5 Chrome/120.0.6099.109 Electron/28.1.0 Safari/537.36" etag="FnxQZp9jngCBsjSFGUY_" version="23.1.5" type="device" pages="2">
  <diagram name="Page-1" id="c0L-k4IsNjHAAHVYIjVo">
    <mxGraphModel dx="1900" dy="-383" grid="1" gridSize="10" guides="1" tooltips="1" connect="1" arrows="1" fold="1" page="1" pageScale="1" pageWidth="850" pageHeight="1100" math="0" shadow="0">
      <root>
        <mxCell id="0" />
        <mxCell id="1" parent="0" />
        <mxCell id="UPzwrpalSEMsGB8v7TFX-4" style="edgeStyle=orthogonalEdgeStyle;rounded=0;orthogonalLoop=1;jettySize=auto;html=1;entryX=0;entryY=0.5;entryDx=0;entryDy=0;fontSize=15;strokeWidth=2;" parent="1" source="UPzwrpalSEMsGB8v7TFX-1" target="JNjkFObuWSihsPi3QTzy-31" edge="1">
          <mxGeometry relative="1" as="geometry" />
        </mxCell>
        <mxCell id="JNjkFObuWSihsPi3QTzy-4" value="roles" style="shape=table;startSize=30;container=1;collapsible=1;childLayout=tableLayout;fixedRows=1;rowLines=0;fontStyle=1;align=center;resizeLast=1;html=1;fontSize=15;" parent="1" vertex="1">
          <mxGeometry x="820" y="1750" width="180" height="90" as="geometry" />
        </mxCell>
        <mxCell id="JNjkFObuWSihsPi3QTzy-5" value="" style="shape=tableRow;horizontal=0;startSize=0;swimlaneHead=0;swimlaneBody=0;fillColor=none;collapsible=0;dropTarget=0;points=[[0,0.5],[1,0.5]];portConstraint=eastwest;top=0;left=0;right=0;bottom=1;fontSize=15;" parent="JNjkFObuWSihsPi3QTzy-4" vertex="1">
          <mxGeometry y="30" width="180" height="30" as="geometry" />
        </mxCell>
        <mxCell id="JNjkFObuWSihsPi3QTzy-6" value="PK" style="shape=partialRectangle;connectable=0;fillColor=none;top=0;left=0;bottom=0;right=0;fontStyle=1;overflow=hidden;whiteSpace=wrap;html=1;fontSize=15;" parent="JNjkFObuWSihsPi3QTzy-5" vertex="1">
          <mxGeometry width="30" height="30" as="geometry">
            <mxRectangle width="30" height="30" as="alternateBounds" />
          </mxGeometry>
        </mxCell>
        <mxCell id="JNjkFObuWSihsPi3QTzy-7" value="role_title" style="shape=partialRectangle;connectable=0;fillColor=none;top=0;left=0;bottom=0;right=0;align=left;spacingLeft=6;fontStyle=5;overflow=hidden;whiteSpace=wrap;html=1;fontSize=15;" parent="JNjkFObuWSihsPi3QTzy-5" vertex="1">
          <mxGeometry x="30" width="150" height="30" as="geometry">
            <mxRectangle width="150" height="30" as="alternateBounds" />
          </mxGeometry>
        </mxCell>
        <mxCell id="JNjkFObuWSihsPi3QTzy-8" value="" style="shape=tableRow;horizontal=0;startSize=0;swimlaneHead=0;swimlaneBody=0;fillColor=none;collapsible=0;dropTarget=0;points=[[0,0.5],[1,0.5]];portConstraint=eastwest;top=0;left=0;right=0;bottom=0;fontSize=15;" parent="JNjkFObuWSihsPi3QTzy-4" vertex="1">
          <mxGeometry y="60" width="180" height="30" as="geometry" />
        </mxCell>
        <mxCell id="JNjkFObuWSihsPi3QTzy-9" value="" style="shape=partialRectangle;connectable=0;fillColor=none;top=0;left=0;bottom=0;right=0;editable=1;overflow=hidden;whiteSpace=wrap;html=1;fontSize=15;" parent="JNjkFObuWSihsPi3QTzy-8" vertex="1">
          <mxGeometry width="30" height="30" as="geometry">
            <mxRectangle width="30" height="30" as="alternateBounds" />
          </mxGeometry>
        </mxCell>
        <mxCell id="JNjkFObuWSihsPi3QTzy-10" value="role_description" style="shape=partialRectangle;connectable=0;fillColor=none;top=0;left=0;bottom=0;right=0;align=left;spacingLeft=6;overflow=hidden;whiteSpace=wrap;html=1;fontStyle=1;fontSize=15;" parent="JNjkFObuWSihsPi3QTzy-8" vertex="1">
          <mxGeometry x="30" width="150" height="30" as="geometry">
            <mxRectangle width="150" height="30" as="alternateBounds" />
          </mxGeometry>
        </mxCell>
        <mxCell id="JNjkFObuWSihsPi3QTzy-17" value="departments" style="shape=table;startSize=30;container=1;collapsible=1;childLayout=tableLayout;fixedRows=1;rowLines=0;fontStyle=1;align=center;resizeLast=1;html=1;fontSize=15;" parent="1" vertex="1">
          <mxGeometry x="820" y="1660" width="180" height="60" as="geometry" />
        </mxCell>
        <mxCell id="JNjkFObuWSihsPi3QTzy-18" value="" style="shape=tableRow;horizontal=0;startSize=0;swimlaneHead=0;swimlaneBody=0;fillColor=none;collapsible=0;dropTarget=0;points=[[0,0.5],[1,0.5]];portConstraint=eastwest;top=0;left=0;right=0;bottom=1;fontSize=15;" parent="JNjkFObuWSihsPi3QTzy-17" vertex="1">
          <mxGeometry y="30" width="180" height="30" as="geometry" />
        </mxCell>
        <mxCell id="JNjkFObuWSihsPi3QTzy-19" value="PK" style="shape=partialRectangle;connectable=0;fillColor=none;top=0;left=0;bottom=0;right=0;fontStyle=1;overflow=hidden;whiteSpace=wrap;html=1;fontSize=15;" parent="JNjkFObuWSihsPi3QTzy-18" vertex="1">
          <mxGeometry width="30" height="30" as="geometry">
            <mxRectangle width="30" height="30" as="alternateBounds" />
          </mxGeometry>
        </mxCell>
        <mxCell id="JNjkFObuWSihsPi3QTzy-20" value="department_name" style="shape=partialRectangle;connectable=0;fillColor=none;top=0;left=0;bottom=0;right=0;align=left;spacingLeft=6;fontStyle=5;overflow=hidden;whiteSpace=wrap;html=1;fontSize=15;" parent="JNjkFObuWSihsPi3QTzy-18" vertex="1">
          <mxGeometry x="30" width="150" height="30" as="geometry">
            <mxRectangle width="150" height="30" as="alternateBounds" />
          </mxGeometry>
        </mxCell>
        <mxCell id="JNjkFObuWSihsPi3QTzy-30" value="staffs" style="shape=table;startSize=30;container=1;collapsible=1;childLayout=tableLayout;fixedRows=1;rowLines=0;fontStyle=1;align=center;resizeLast=1;html=1;fontSize=15;" parent="1" vertex="1">
          <mxGeometry x="830" y="1259" width="210" height="360" as="geometry" />
        </mxCell>
        <mxCell id="JNjkFObuWSihsPi3QTzy-31" value="" style="shape=tableRow;horizontal=0;startSize=0;swimlaneHead=0;swimlaneBody=0;fillColor=none;collapsible=0;dropTarget=0;points=[[0,0.5],[1,0.5]];portConstraint=eastwest;top=0;left=0;right=0;bottom=1;fontSize=15;" parent="JNjkFObuWSihsPi3QTzy-30" vertex="1">
          <mxGeometry y="30" width="210" height="30" as="geometry" />
        </mxCell>
        <mxCell id="JNjkFObuWSihsPi3QTzy-32" value="PK" style="shape=partialRectangle;connectable=0;fillColor=none;top=0;left=0;bottom=0;right=0;fontStyle=1;overflow=hidden;whiteSpace=wrap;html=1;fontSize=15;" parent="JNjkFObuWSihsPi3QTzy-31" vertex="1">
          <mxGeometry width="30" height="30" as="geometry">
            <mxRectangle width="30" height="30" as="alternateBounds" />
          </mxGeometry>
        </mxCell>
        <mxCell id="JNjkFObuWSihsPi3QTzy-33" value="staff_id" style="shape=partialRectangle;connectable=0;fillColor=none;top=0;left=0;bottom=0;right=0;align=left;spacingLeft=6;fontStyle=5;overflow=hidden;whiteSpace=wrap;html=1;fontSize=15;" parent="JNjkFObuWSihsPi3QTzy-31" vertex="1">
          <mxGeometry x="30" width="180" height="30" as="geometry">
            <mxRectangle width="180" height="30" as="alternateBounds" />
          </mxGeometry>
        </mxCell>
        <mxCell id="JNjkFObuWSihsPi3QTzy-34" value="" style="shape=tableRow;horizontal=0;startSize=0;swimlaneHead=0;swimlaneBody=0;fillColor=none;collapsible=0;dropTarget=0;points=[[0,0.5],[1,0.5]];portConstraint=eastwest;top=0;left=0;right=0;bottom=0;fontSize=15;" parent="JNjkFObuWSihsPi3QTzy-30" vertex="1">
          <mxGeometry y="60" width="210" height="30" as="geometry" />
        </mxCell>
        <mxCell id="JNjkFObuWSihsPi3QTzy-35" value="" style="shape=partialRectangle;connectable=0;fillColor=none;top=0;left=0;bottom=0;right=0;editable=1;overflow=hidden;whiteSpace=wrap;html=1;fontSize=15;" parent="JNjkFObuWSihsPi3QTzy-34" vertex="1">
          <mxGeometry width="30" height="30" as="geometry">
            <mxRectangle width="30" height="30" as="alternateBounds" />
          </mxGeometry>
        </mxCell>
        <mxCell id="JNjkFObuWSihsPi3QTzy-36" value="staff_firstname" style="shape=partialRectangle;connectable=0;fillColor=none;top=0;left=0;bottom=0;right=0;align=left;spacingLeft=6;overflow=hidden;whiteSpace=wrap;html=1;fontStyle=1;fontSize=15;" parent="JNjkFObuWSihsPi3QTzy-34" vertex="1">
          <mxGeometry x="30" width="180" height="30" as="geometry">
            <mxRectangle width="180" height="30" as="alternateBounds" />
          </mxGeometry>
        </mxCell>
        <mxCell id="JNjkFObuWSihsPi3QTzy-37" value="" style="shape=tableRow;horizontal=0;startSize=0;swimlaneHead=0;swimlaneBody=0;fillColor=none;collapsible=0;dropTarget=0;points=[[0,0.5],[1,0.5]];portConstraint=eastwest;top=0;left=0;right=0;bottom=0;fontSize=15;" parent="JNjkFObuWSihsPi3QTzy-30" vertex="1">
          <mxGeometry y="90" width="210" height="30" as="geometry" />
        </mxCell>
        <mxCell id="JNjkFObuWSihsPi3QTzy-38" value="" style="shape=partialRectangle;connectable=0;fillColor=none;top=0;left=0;bottom=0;right=0;editable=1;overflow=hidden;whiteSpace=wrap;html=1;fontSize=15;" parent="JNjkFObuWSihsPi3QTzy-37" vertex="1">
          <mxGeometry width="30" height="30" as="geometry">
            <mxRectangle width="30" height="30" as="alternateBounds" />
          </mxGeometry>
        </mxCell>
        <mxCell id="JNjkFObuWSihsPi3QTzy-39" value="staff_lastname" style="shape=partialRectangle;connectable=0;fillColor=none;top=0;left=0;bottom=0;right=0;align=left;spacingLeft=6;overflow=hidden;whiteSpace=wrap;html=1;fontStyle=1;fontSize=15;" parent="JNjkFObuWSihsPi3QTzy-37" vertex="1">
          <mxGeometry x="30" width="180" height="30" as="geometry">
            <mxRectangle width="180" height="30" as="alternateBounds" />
          </mxGeometry>
        </mxCell>
        <mxCell id="JNjkFObuWSihsPi3QTzy-55" value="" style="shape=tableRow;horizontal=0;startSize=0;swimlaneHead=0;swimlaneBody=0;fillColor=none;collapsible=0;dropTarget=0;points=[[0,0.5],[1,0.5]];portConstraint=eastwest;top=0;left=0;right=0;bottom=0;fontSize=15;" parent="JNjkFObuWSihsPi3QTzy-30" vertex="1">
          <mxGeometry y="120" width="210" height="30" as="geometry" />
        </mxCell>
        <mxCell id="JNjkFObuWSihsPi3QTzy-56" value="" style="shape=partialRectangle;connectable=0;fillColor=none;top=0;left=0;bottom=0;right=0;editable=1;overflow=hidden;whiteSpace=wrap;html=1;fontSize=15;" parent="JNjkFObuWSihsPi3QTzy-55" vertex="1">
          <mxGeometry width="30" height="30" as="geometry">
            <mxRectangle width="30" height="30" as="alternateBounds" />
          </mxGeometry>
        </mxCell>
        <mxCell id="JNjkFObuWSihsPi3QTzy-57" value="staff_hiredate" style="shape=partialRectangle;connectable=0;fillColor=none;top=0;left=0;bottom=0;right=0;align=left;spacingLeft=6;overflow=hidden;whiteSpace=wrap;html=1;fontStyle=1;fontSize=15;" parent="JNjkFObuWSihsPi3QTzy-55" vertex="1">
          <mxGeometry x="30" width="180" height="30" as="geometry">
            <mxRectangle width="180" height="30" as="alternateBounds" />
          </mxGeometry>
        </mxCell>
        <mxCell id="JNjkFObuWSihsPi3QTzy-58" value="" style="shape=tableRow;horizontal=0;startSize=0;swimlaneHead=0;swimlaneBody=0;fillColor=none;collapsible=0;dropTarget=0;points=[[0,0.5],[1,0.5]];portConstraint=eastwest;top=0;left=0;right=0;bottom=0;fontSize=15;" parent="JNjkFObuWSihsPi3QTzy-30" vertex="1">
          <mxGeometry y="150" width="210" height="30" as="geometry" />
        </mxCell>
        <mxCell id="JNjkFObuWSihsPi3QTzy-59" value="&lt;b style=&quot;font-size: 15px;&quot;&gt;FK1&lt;/b&gt;" style="shape=partialRectangle;connectable=0;fillColor=none;top=0;left=0;bottom=0;right=0;editable=1;overflow=hidden;whiteSpace=wrap;html=1;fontSize=15;" parent="JNjkFObuWSihsPi3QTzy-58" vertex="1">
          <mxGeometry width="30" height="30" as="geometry">
            <mxRectangle width="30" height="30" as="alternateBounds" />
          </mxGeometry>
        </mxCell>
        <mxCell id="JNjkFObuWSihsPi3QTzy-60" value="staff_department_name" style="shape=partialRectangle;connectable=0;fillColor=none;top=0;left=0;bottom=0;right=0;align=left;spacingLeft=6;overflow=hidden;whiteSpace=wrap;html=1;fontStyle=1;fontSize=15;" parent="JNjkFObuWSihsPi3QTzy-58" vertex="1">
          <mxGeometry x="30" width="180" height="30" as="geometry">
            <mxRectangle width="180" height="30" as="alternateBounds" />
          </mxGeometry>
        </mxCell>
        <mxCell id="JNjkFObuWSihsPi3QTzy-61" value="" style="shape=tableRow;horizontal=0;startSize=0;swimlaneHead=0;swimlaneBody=0;fillColor=none;collapsible=0;dropTarget=0;points=[[0,0.5],[1,0.5]];portConstraint=eastwest;top=0;left=0;right=0;bottom=0;fontStyle=0;fontSize=15;" parent="JNjkFObuWSihsPi3QTzy-30" vertex="1">
          <mxGeometry y="180" width="210" height="30" as="geometry" />
        </mxCell>
        <mxCell id="JNjkFObuWSihsPi3QTzy-62" value="FK2" style="shape=partialRectangle;connectable=0;fillColor=none;top=0;left=0;bottom=0;right=0;editable=1;overflow=hidden;whiteSpace=wrap;html=1;fontStyle=1;fontSize=15;" parent="JNjkFObuWSihsPi3QTzy-61" vertex="1">
          <mxGeometry width="30" height="30" as="geometry">
            <mxRectangle width="30" height="30" as="alternateBounds" />
          </mxGeometry>
        </mxCell>
        <mxCell id="JNjkFObuWSihsPi3QTzy-63" value="staff_role_title" style="shape=partialRectangle;connectable=0;fillColor=none;top=0;left=0;bottom=0;right=0;align=left;spacingLeft=6;overflow=hidden;whiteSpace=wrap;html=1;fontStyle=1;fontSize=15;" parent="JNjkFObuWSihsPi3QTzy-61" vertex="1">
          <mxGeometry x="30" width="180" height="30" as="geometry">
            <mxRectangle width="180" height="30" as="alternateBounds" />
          </mxGeometry>
        </mxCell>
        <mxCell id="UPzwrpalSEMsGB8v7TFX-1" value="" style="shape=tableRow;horizontal=0;startSize=0;swimlaneHead=0;swimlaneBody=0;fillColor=none;collapsible=0;dropTarget=0;points=[[0,0.5],[1,0.5]];portConstraint=eastwest;top=0;left=0;right=0;bottom=0;fontStyle=0;fontSize=15;" parent="JNjkFObuWSihsPi3QTzy-30" vertex="1">
          <mxGeometry y="210" width="210" height="30" as="geometry" />
        </mxCell>
        <mxCell id="UPzwrpalSEMsGB8v7TFX-2" value="FK3" style="shape=partialRectangle;connectable=0;fillColor=none;top=0;left=0;bottom=0;right=0;editable=1;overflow=hidden;whiteSpace=wrap;html=1;fontStyle=1;fontSize=15;" parent="UPzwrpalSEMsGB8v7TFX-1" vertex="1">
          <mxGeometry width="30" height="30" as="geometry">
            <mxRectangle width="30" height="30" as="alternateBounds" />
          </mxGeometry>
        </mxCell>
        <mxCell id="UPzwrpalSEMsGB8v7TFX-3" value="staff_supervisor_id" style="shape=partialRectangle;connectable=0;fillColor=none;top=0;left=0;bottom=0;right=0;align=left;spacingLeft=6;overflow=hidden;whiteSpace=wrap;html=1;fontStyle=1;fontSize=15;" parent="UPzwrpalSEMsGB8v7TFX-1" vertex="1">
          <mxGeometry x="30" width="180" height="30" as="geometry">
            <mxRectangle width="180" height="30" as="alternateBounds" />
          </mxGeometry>
        </mxCell>
        <mxCell id="qkbpi_EkxGNsdv4bakUl-1" value="" style="shape=tableRow;horizontal=0;startSize=0;swimlaneHead=0;swimlaneBody=0;fillColor=none;collapsible=0;dropTarget=0;points=[[0,0.5],[1,0.5]];portConstraint=eastwest;top=0;left=0;right=0;bottom=0;fontSize=15;" parent="JNjkFObuWSihsPi3QTzy-30" vertex="1">
          <mxGeometry y="240" width="210" height="30" as="geometry" />
        </mxCell>
        <mxCell id="qkbpi_EkxGNsdv4bakUl-2" value="" style="shape=partialRectangle;connectable=0;fillColor=none;top=0;left=0;bottom=0;right=0;editable=1;overflow=hidden;whiteSpace=wrap;html=1;fontSize=15;" parent="qkbpi_EkxGNsdv4bakUl-1" vertex="1">
          <mxGeometry width="30" height="30" as="geometry">
            <mxRectangle width="30" height="30" as="alternateBounds" />
          </mxGeometry>
        </mxCell>
        <mxCell id="qkbpi_EkxGNsdv4bakUl-3" value="staff_DOB" style="shape=partialRectangle;connectable=0;fillColor=none;top=0;left=0;bottom=0;right=0;align=left;spacingLeft=6;overflow=hidden;whiteSpace=wrap;html=1;fontStyle=1;fontSize=15;" parent="qkbpi_EkxGNsdv4bakUl-1" vertex="1">
          <mxGeometry x="30" width="180" height="30" as="geometry">
            <mxRectangle width="180" height="30" as="alternateBounds" />
          </mxGeometry>
        </mxCell>
        <mxCell id="qkbpi_EkxGNsdv4bakUl-4" value="" style="shape=tableRow;horizontal=0;startSize=0;swimlaneHead=0;swimlaneBody=0;fillColor=none;collapsible=0;dropTarget=0;points=[[0,0.5],[1,0.5]];portConstraint=eastwest;top=0;left=0;right=0;bottom=0;fontSize=15;" parent="JNjkFObuWSihsPi3QTzy-30" vertex="1">
          <mxGeometry y="270" width="210" height="30" as="geometry" />
        </mxCell>
        <mxCell id="qkbpi_EkxGNsdv4bakUl-5" value="" style="shape=partialRectangle;connectable=0;fillColor=none;top=0;left=0;bottom=0;right=0;editable=1;overflow=hidden;whiteSpace=wrap;html=1;fontSize=15;" parent="qkbpi_EkxGNsdv4bakUl-4" vertex="1">
          <mxGeometry width="30" height="30" as="geometry">
            <mxRectangle width="30" height="30" as="alternateBounds" />
          </mxGeometry>
        </mxCell>
        <mxCell id="qkbpi_EkxGNsdv4bakUl-6" value="staff_phone_number" style="shape=partialRectangle;connectable=0;fillColor=none;top=0;left=0;bottom=0;right=0;align=left;spacingLeft=6;overflow=hidden;whiteSpace=wrap;html=1;fontStyle=1;fontSize=15;" parent="qkbpi_EkxGNsdv4bakUl-4" vertex="1">
          <mxGeometry x="30" width="180" height="30" as="geometry">
            <mxRectangle width="180" height="30" as="alternateBounds" />
          </mxGeometry>
        </mxCell>
        <mxCell id="qkbpi_EkxGNsdv4bakUl-7" value="" style="shape=tableRow;horizontal=0;startSize=0;swimlaneHead=0;swimlaneBody=0;fillColor=none;collapsible=0;dropTarget=0;points=[[0,0.5],[1,0.5]];portConstraint=eastwest;top=0;left=0;right=0;bottom=0;fontSize=15;" parent="JNjkFObuWSihsPi3QTzy-30" vertex="1">
          <mxGeometry y="300" width="210" height="30" as="geometry" />
        </mxCell>
        <mxCell id="qkbpi_EkxGNsdv4bakUl-8" value="U" style="shape=partialRectangle;connectable=0;fillColor=none;top=0;left=0;bottom=0;right=0;editable=1;overflow=hidden;whiteSpace=wrap;html=1;fontSize=15;fontStyle=1" parent="qkbpi_EkxGNsdv4bakUl-7" vertex="1">
          <mxGeometry width="30" height="30" as="geometry">
            <mxRectangle width="30" height="30" as="alternateBounds" />
          </mxGeometry>
        </mxCell>
        <mxCell id="qkbpi_EkxGNsdv4bakUl-9" value="staff_email" style="shape=partialRectangle;connectable=0;fillColor=none;top=0;left=0;bottom=0;right=0;align=left;spacingLeft=6;overflow=hidden;whiteSpace=wrap;html=1;fontStyle=1;fontSize=15;" parent="qkbpi_EkxGNsdv4bakUl-7" vertex="1">
          <mxGeometry x="30" width="180" height="30" as="geometry">
            <mxRectangle width="180" height="30" as="alternateBounds" />
          </mxGeometry>
        </mxCell>
        <mxCell id="qkbpi_EkxGNsdv4bakUl-10" value="" style="shape=tableRow;horizontal=0;startSize=0;swimlaneHead=0;swimlaneBody=0;fillColor=none;collapsible=0;dropTarget=0;points=[[0,0.5],[1,0.5]];portConstraint=eastwest;top=0;left=0;right=0;bottom=0;fontSize=15;" parent="JNjkFObuWSihsPi3QTzy-30" vertex="1">
          <mxGeometry y="330" width="210" height="30" as="geometry" />
        </mxCell>
        <mxCell id="qkbpi_EkxGNsdv4bakUl-11" value="" style="shape=partialRectangle;connectable=0;fillColor=none;top=0;left=0;bottom=0;right=0;editable=1;overflow=hidden;whiteSpace=wrap;html=1;fontSize=15;" parent="qkbpi_EkxGNsdv4bakUl-10" vertex="1">
          <mxGeometry width="30" height="30" as="geometry">
            <mxRectangle width="30" height="30" as="alternateBounds" />
          </mxGeometry>
        </mxCell>
        <mxCell id="qkbpi_EkxGNsdv4bakUl-12" value="staff_gender" style="shape=partialRectangle;connectable=0;fillColor=none;top=0;left=0;bottom=0;right=0;align=left;spacingLeft=6;overflow=hidden;whiteSpace=wrap;html=1;fontStyle=1;fontSize=15;" parent="qkbpi_EkxGNsdv4bakUl-10" vertex="1">
          <mxGeometry x="30" width="180" height="30" as="geometry">
            <mxRectangle width="180" height="30" as="alternateBounds" />
          </mxGeometry>
        </mxCell>
        <mxCell id="JNjkFObuWSihsPi3QTzy-65" style="edgeStyle=orthogonalEdgeStyle;rounded=0;orthogonalLoop=1;jettySize=auto;html=1;entryX=1;entryY=0.5;entryDx=0;entryDy=0;exitX=1;exitY=0.5;exitDx=0;exitDy=0;fontSize=15;strokeWidth=2;" parent="1" source="JNjkFObuWSihsPi3QTzy-58" target="JNjkFObuWSihsPi3QTzy-18" edge="1">
          <mxGeometry relative="1" as="geometry">
            <Array as="points">
              <mxPoint x="1060" y="1424" />
              <mxPoint x="1060" y="1705" />
            </Array>
          </mxGeometry>
        </mxCell>
        <mxCell id="JNjkFObuWSihsPi3QTzy-66" value="roomtypes" style="shape=table;startSize=30;container=1;collapsible=1;childLayout=tableLayout;fixedRows=1;rowLines=0;fontStyle=1;align=center;resizeLast=1;html=1;fontSize=15;" parent="1" vertex="1">
          <mxGeometry x="500" y="1420" width="230" height="150" as="geometry" />
        </mxCell>
        <mxCell id="JNjkFObuWSihsPi3QTzy-67" value="" style="shape=tableRow;horizontal=0;startSize=0;swimlaneHead=0;swimlaneBody=0;fillColor=none;collapsible=0;dropTarget=0;points=[[0,0.5],[1,0.5]];portConstraint=eastwest;top=0;left=0;right=0;bottom=1;fontSize=15;" parent="JNjkFObuWSihsPi3QTzy-66" vertex="1">
          <mxGeometry y="30" width="230" height="30" as="geometry" />
        </mxCell>
        <mxCell id="JNjkFObuWSihsPi3QTzy-68" value="PK" style="shape=partialRectangle;connectable=0;fillColor=none;top=0;left=0;bottom=0;right=0;fontStyle=1;overflow=hidden;whiteSpace=wrap;html=1;fontSize=15;" parent="JNjkFObuWSihsPi3QTzy-67" vertex="1">
          <mxGeometry width="30" height="30" as="geometry">
            <mxRectangle width="30" height="30" as="alternateBounds" />
          </mxGeometry>
        </mxCell>
        <mxCell id="JNjkFObuWSihsPi3QTzy-69" value="roomtype_name" style="shape=partialRectangle;connectable=0;fillColor=none;top=0;left=0;bottom=0;right=0;align=left;spacingLeft=6;fontStyle=5;overflow=hidden;whiteSpace=wrap;html=1;fontSize=15;" parent="JNjkFObuWSihsPi3QTzy-67" vertex="1">
          <mxGeometry x="30" width="200" height="30" as="geometry">
            <mxRectangle width="200" height="30" as="alternateBounds" />
          </mxGeometry>
        </mxCell>
        <mxCell id="JNjkFObuWSihsPi3QTzy-73" value="" style="shape=tableRow;horizontal=0;startSize=0;swimlaneHead=0;swimlaneBody=0;fillColor=none;collapsible=0;dropTarget=0;points=[[0,0.5],[1,0.5]];portConstraint=eastwest;top=0;left=0;right=0;bottom=0;fontSize=15;" parent="JNjkFObuWSihsPi3QTzy-66" vertex="1">
          <mxGeometry y="60" width="230" height="30" as="geometry" />
        </mxCell>
        <mxCell id="JNjkFObuWSihsPi3QTzy-74" value="" style="shape=partialRectangle;connectable=0;fillColor=none;top=0;left=0;bottom=0;right=0;editable=1;overflow=hidden;whiteSpace=wrap;html=1;fontSize=15;" parent="JNjkFObuWSihsPi3QTzy-73" vertex="1">
          <mxGeometry width="30" height="30" as="geometry">
            <mxRectangle width="30" height="30" as="alternateBounds" />
          </mxGeometry>
        </mxCell>
        <mxCell id="JNjkFObuWSihsPi3QTzy-75" value="roomtype_price" style="shape=partialRectangle;connectable=0;fillColor=none;top=0;left=0;bottom=0;right=0;align=left;spacingLeft=6;overflow=hidden;whiteSpace=wrap;html=1;fontStyle=1;fontSize=15;" parent="JNjkFObuWSihsPi3QTzy-73" vertex="1">
          <mxGeometry x="30" width="200" height="30" as="geometry">
            <mxRectangle width="200" height="30" as="alternateBounds" />
          </mxGeometry>
        </mxCell>
        <mxCell id="JNjkFObuWSihsPi3QTzy-76" value="" style="shape=tableRow;horizontal=0;startSize=0;swimlaneHead=0;swimlaneBody=0;fillColor=none;collapsible=0;dropTarget=0;points=[[0,0.5],[1,0.5]];portConstraint=eastwest;top=0;left=0;right=0;bottom=0;fontSize=15;" parent="JNjkFObuWSihsPi3QTzy-66" vertex="1">
          <mxGeometry y="90" width="230" height="30" as="geometry" />
        </mxCell>
        <mxCell id="JNjkFObuWSihsPi3QTzy-77" value="" style="shape=partialRectangle;connectable=0;fillColor=none;top=0;left=0;bottom=0;right=0;editable=1;overflow=hidden;whiteSpace=wrap;html=1;fontSize=15;" parent="JNjkFObuWSihsPi3QTzy-76" vertex="1">
          <mxGeometry width="30" height="30" as="geometry">
            <mxRectangle width="30" height="30" as="alternateBounds" />
          </mxGeometry>
        </mxCell>
        <mxCell id="JNjkFObuWSihsPi3QTzy-78" value="roomtype_max_occupancy" style="shape=partialRectangle;connectable=0;fillColor=none;top=0;left=0;bottom=0;right=0;align=left;spacingLeft=6;overflow=hidden;whiteSpace=wrap;html=1;fontStyle=1;fontSize=15;" parent="JNjkFObuWSihsPi3QTzy-76" vertex="1">
          <mxGeometry x="30" width="200" height="30" as="geometry">
            <mxRectangle width="200" height="30" as="alternateBounds" />
          </mxGeometry>
        </mxCell>
        <mxCell id="JNjkFObuWSihsPi3QTzy-82" value="" style="shape=tableRow;horizontal=0;startSize=0;swimlaneHead=0;swimlaneBody=0;fillColor=none;collapsible=0;dropTarget=0;points=[[0,0.5],[1,0.5]];portConstraint=eastwest;top=0;left=0;right=0;bottom=0;fontSize=15;" parent="JNjkFObuWSihsPi3QTzy-66" vertex="1">
          <mxGeometry y="120" width="230" height="30" as="geometry" />
        </mxCell>
        <mxCell id="JNjkFObuWSihsPi3QTzy-83" value="" style="shape=partialRectangle;connectable=0;fillColor=none;top=0;left=0;bottom=0;right=0;editable=1;overflow=hidden;whiteSpace=wrap;html=1;fontSize=15;" parent="JNjkFObuWSihsPi3QTzy-82" vertex="1">
          <mxGeometry width="30" height="30" as="geometry">
            <mxRectangle width="30" height="30" as="alternateBounds" />
          </mxGeometry>
        </mxCell>
        <mxCell id="JNjkFObuWSihsPi3QTzy-84" value="roomtype_description" style="shape=partialRectangle;connectable=0;fillColor=none;top=0;left=0;bottom=0;right=0;align=left;spacingLeft=6;overflow=hidden;whiteSpace=wrap;html=1;fontSize=15;" parent="JNjkFObuWSihsPi3QTzy-82" vertex="1">
          <mxGeometry x="30" width="200" height="30" as="geometry">
            <mxRectangle width="200" height="30" as="alternateBounds" />
          </mxGeometry>
        </mxCell>
        <mxCell id="JNjkFObuWSihsPi3QTzy-88" value="rooms" style="shape=table;startSize=30;container=1;collapsible=1;childLayout=tableLayout;fixedRows=1;rowLines=0;fontStyle=1;align=center;resizeLast=1;html=1;fontSize=15;" parent="1" vertex="1">
          <mxGeometry x="525" y="1740" width="205" height="270" as="geometry" />
        </mxCell>
        <mxCell id="JNjkFObuWSihsPi3QTzy-89" value="" style="shape=tableRow;horizontal=0;startSize=0;swimlaneHead=0;swimlaneBody=0;fillColor=none;collapsible=0;dropTarget=0;points=[[0,0.5],[1,0.5]];portConstraint=eastwest;top=0;left=0;right=0;bottom=1;fontSize=15;" parent="JNjkFObuWSihsPi3QTzy-88" vertex="1">
          <mxGeometry y="30" width="205" height="30" as="geometry" />
        </mxCell>
        <mxCell id="JNjkFObuWSihsPi3QTzy-90" value="PK" style="shape=partialRectangle;connectable=0;fillColor=none;top=0;left=0;bottom=0;right=0;fontStyle=1;overflow=hidden;whiteSpace=wrap;html=1;fontSize=15;" parent="JNjkFObuWSihsPi3QTzy-89" vertex="1">
          <mxGeometry width="30" height="30" as="geometry">
            <mxRectangle width="30" height="30" as="alternateBounds" />
          </mxGeometry>
        </mxCell>
        <mxCell id="JNjkFObuWSihsPi3QTzy-91" value="room_id" style="shape=partialRectangle;connectable=0;fillColor=none;top=0;left=0;bottom=0;right=0;align=left;spacingLeft=6;fontStyle=5;overflow=hidden;whiteSpace=wrap;html=1;fontSize=15;" parent="JNjkFObuWSihsPi3QTzy-89" vertex="1">
          <mxGeometry x="30" width="175" height="30" as="geometry">
            <mxRectangle width="175" height="30" as="alternateBounds" />
          </mxGeometry>
        </mxCell>
        <mxCell id="JNjkFObuWSihsPi3QTzy-95" value="" style="shape=tableRow;horizontal=0;startSize=0;swimlaneHead=0;swimlaneBody=0;fillColor=none;collapsible=0;dropTarget=0;points=[[0,0.5],[1,0.5]];portConstraint=eastwest;top=0;left=0;right=0;bottom=0;movable=1;resizable=1;rotatable=1;deletable=1;editable=1;locked=0;connectable=1;fontSize=15;" parent="JNjkFObuWSihsPi3QTzy-88" vertex="1">
          <mxGeometry y="60" width="205" height="30" as="geometry" />
        </mxCell>
        <mxCell id="JNjkFObuWSihsPi3QTzy-96" value="" style="shape=partialRectangle;connectable=0;fillColor=none;top=0;left=0;bottom=0;right=0;editable=1;overflow=hidden;whiteSpace=wrap;html=1;fontSize=15;" parent="JNjkFObuWSihsPi3QTzy-95" vertex="1">
          <mxGeometry width="30" height="30" as="geometry">
            <mxRectangle width="30" height="30" as="alternateBounds" />
          </mxGeometry>
        </mxCell>
        <mxCell id="JNjkFObuWSihsPi3QTzy-97" value="room_number" style="shape=partialRectangle;connectable=0;fillColor=none;top=0;left=0;bottom=0;right=0;align=left;spacingLeft=6;overflow=hidden;whiteSpace=wrap;html=1;fontStyle=1;fontSize=15;" parent="JNjkFObuWSihsPi3QTzy-95" vertex="1">
          <mxGeometry x="30" width="175" height="30" as="geometry">
            <mxRectangle width="175" height="30" as="alternateBounds" />
          </mxGeometry>
        </mxCell>
        <mxCell id="JNjkFObuWSihsPi3QTzy-98" value="" style="shape=tableRow;horizontal=0;startSize=0;swimlaneHead=0;swimlaneBody=0;fillColor=none;collapsible=0;dropTarget=0;points=[[0,0.5],[1,0.5]];portConstraint=eastwest;top=0;left=0;right=0;bottom=0;fontSize=15;" parent="JNjkFObuWSihsPi3QTzy-88" vertex="1">
          <mxGeometry y="90" width="205" height="30" as="geometry" />
        </mxCell>
        <mxCell id="JNjkFObuWSihsPi3QTzy-99" value="FK1" style="shape=partialRectangle;connectable=0;fillColor=none;top=0;left=0;bottom=0;right=0;editable=1;overflow=hidden;whiteSpace=wrap;html=1;fontStyle=1;fontSize=15;" parent="JNjkFObuWSihsPi3QTzy-98" vertex="1">
          <mxGeometry width="30" height="30" as="geometry">
            <mxRectangle width="30" height="30" as="alternateBounds" />
          </mxGeometry>
        </mxCell>
        <mxCell id="JNjkFObuWSihsPi3QTzy-100" value="room_roomtype_name" style="shape=partialRectangle;connectable=0;fillColor=none;top=0;left=0;bottom=0;right=0;align=left;spacingLeft=6;overflow=hidden;whiteSpace=wrap;html=1;fontStyle=1;fontSize=15;" parent="JNjkFObuWSihsPi3QTzy-98" vertex="1">
          <mxGeometry x="30" width="175" height="30" as="geometry">
            <mxRectangle width="175" height="30" as="alternateBounds" />
          </mxGeometry>
        </mxCell>
        <mxCell id="JNjkFObuWSihsPi3QTzy-101" value="" style="shape=tableRow;horizontal=0;startSize=0;swimlaneHead=0;swimlaneBody=0;fillColor=none;collapsible=0;dropTarget=0;points=[[0,0.5],[1,0.5]];portConstraint=eastwest;top=0;left=0;right=0;bottom=0;fontSize=15;" parent="JNjkFObuWSihsPi3QTzy-88" vertex="1">
          <mxGeometry y="120" width="205" height="30" as="geometry" />
        </mxCell>
        <mxCell id="JNjkFObuWSihsPi3QTzy-102" value="FK2" style="shape=partialRectangle;connectable=0;fillColor=none;top=0;left=0;bottom=0;right=0;editable=1;overflow=hidden;whiteSpace=wrap;html=1;fontStyle=1;fontSize=15;" parent="JNjkFObuWSihsPi3QTzy-101" vertex="1">
          <mxGeometry width="30" height="30" as="geometry">
            <mxRectangle width="30" height="30" as="alternateBounds" />
          </mxGeometry>
        </mxCell>
        <mxCell id="JNjkFObuWSihsPi3QTzy-103" value="room_staff_id" style="shape=partialRectangle;connectable=0;fillColor=none;top=0;left=0;bottom=0;right=0;align=left;spacingLeft=6;overflow=hidden;whiteSpace=wrap;html=1;fontStyle=1;fontSize=15;" parent="JNjkFObuWSihsPi3QTzy-101" vertex="1">
          <mxGeometry x="30" width="175" height="30" as="geometry">
            <mxRectangle width="175" height="30" as="alternateBounds" />
          </mxGeometry>
        </mxCell>
        <mxCell id="UPzwrpalSEMsGB8v7TFX-5" value="" style="shape=tableRow;horizontal=0;startSize=0;swimlaneHead=0;swimlaneBody=0;fillColor=none;collapsible=0;dropTarget=0;points=[[0,0.5],[1,0.5]];portConstraint=eastwest;top=0;left=0;right=0;bottom=0;movable=1;resizable=1;rotatable=1;deletable=1;editable=1;locked=0;connectable=1;fontSize=15;" parent="JNjkFObuWSihsPi3QTzy-88" vertex="1">
          <mxGeometry y="150" width="205" height="30" as="geometry" />
        </mxCell>
        <mxCell id="UPzwrpalSEMsGB8v7TFX-6" value="" style="shape=partialRectangle;connectable=0;fillColor=none;top=0;left=0;bottom=0;right=0;editable=1;overflow=hidden;whiteSpace=wrap;html=1;fontSize=15;" parent="UPzwrpalSEMsGB8v7TFX-5" vertex="1">
          <mxGeometry width="30" height="30" as="geometry">
            <mxRectangle width="30" height="30" as="alternateBounds" />
          </mxGeometry>
        </mxCell>
        <mxCell id="UPzwrpalSEMsGB8v7TFX-7" value="&lt;span style=&quot;font-weight: normal; font-size: 15px;&quot;&gt;room_cleaned_date&lt;/span&gt;" style="shape=partialRectangle;connectable=0;fillColor=none;top=0;left=0;bottom=0;right=0;align=left;spacingLeft=6;overflow=hidden;whiteSpace=wrap;html=1;fontStyle=1;fontSize=15;" parent="UPzwrpalSEMsGB8v7TFX-5" vertex="1">
          <mxGeometry x="30" width="175" height="30" as="geometry">
            <mxRectangle width="175" height="30" as="alternateBounds" />
          </mxGeometry>
        </mxCell>
        <mxCell id="Ya4uXMrLHYWg0zAZIqxW-1" value="" style="shape=tableRow;horizontal=0;startSize=0;swimlaneHead=0;swimlaneBody=0;fillColor=none;collapsible=0;dropTarget=0;points=[[0,0.5],[1,0.5]];portConstraint=eastwest;top=0;left=0;right=0;bottom=0;movable=1;resizable=1;rotatable=1;deletable=1;editable=1;locked=0;connectable=1;fontSize=15;" parent="JNjkFObuWSihsPi3QTzy-88" vertex="1">
          <mxGeometry y="180" width="205" height="30" as="geometry" />
        </mxCell>
        <mxCell id="Ya4uXMrLHYWg0zAZIqxW-2" value="" style="shape=partialRectangle;connectable=0;fillColor=none;top=0;left=0;bottom=0;right=0;editable=1;overflow=hidden;whiteSpace=wrap;html=1;fontSize=15;" parent="Ya4uXMrLHYWg0zAZIqxW-1" vertex="1">
          <mxGeometry width="30" height="30" as="geometry">
            <mxRectangle width="30" height="30" as="alternateBounds" />
          </mxGeometry>
        </mxCell>
        <mxCell id="Ya4uXMrLHYWg0zAZIqxW-3" value="&lt;span style=&quot;font-weight: normal; font-size: 15px;&quot;&gt;room_checkin_date&lt;/span&gt;" style="shape=partialRectangle;connectable=0;fillColor=none;top=0;left=0;bottom=0;right=0;align=left;spacingLeft=6;overflow=hidden;whiteSpace=wrap;html=1;fontStyle=1;fontSize=15;" parent="Ya4uXMrLHYWg0zAZIqxW-1" vertex="1">
          <mxGeometry x="30" width="175" height="30" as="geometry">
            <mxRectangle width="175" height="30" as="alternateBounds" />
          </mxGeometry>
        </mxCell>
        <mxCell id="Ya4uXMrLHYWg0zAZIqxW-4" value="" style="shape=tableRow;horizontal=0;startSize=0;swimlaneHead=0;swimlaneBody=0;fillColor=none;collapsible=0;dropTarget=0;points=[[0,0.5],[1,0.5]];portConstraint=eastwest;top=0;left=0;right=0;bottom=0;movable=1;resizable=1;rotatable=1;deletable=1;editable=1;locked=0;connectable=1;fontSize=15;" parent="JNjkFObuWSihsPi3QTzy-88" vertex="1">
          <mxGeometry y="210" width="205" height="30" as="geometry" />
        </mxCell>
        <mxCell id="Ya4uXMrLHYWg0zAZIqxW-5" value="" style="shape=partialRectangle;connectable=0;fillColor=none;top=0;left=0;bottom=0;right=0;editable=1;overflow=hidden;whiteSpace=wrap;html=1;fontSize=15;" parent="Ya4uXMrLHYWg0zAZIqxW-4" vertex="1">
          <mxGeometry width="30" height="30" as="geometry">
            <mxRectangle width="30" height="30" as="alternateBounds" />
          </mxGeometry>
        </mxCell>
        <mxCell id="Ya4uXMrLHYWg0zAZIqxW-6" value="&lt;span style=&quot;font-weight: normal; font-size: 15px;&quot;&gt;room_checkout_date&lt;/span&gt;" style="shape=partialRectangle;connectable=0;fillColor=none;top=0;left=0;bottom=0;right=0;align=left;spacingLeft=6;overflow=hidden;whiteSpace=wrap;html=1;fontStyle=1;fontSize=15;" parent="Ya4uXMrLHYWg0zAZIqxW-4" vertex="1">
          <mxGeometry x="30" width="175" height="30" as="geometry">
            <mxRectangle width="175" height="30" as="alternateBounds" />
          </mxGeometry>
        </mxCell>
        <mxCell id="GhYaBqCUdXHmLidMKI3i-1" value="" style="shape=tableRow;horizontal=0;startSize=0;swimlaneHead=0;swimlaneBody=0;fillColor=none;collapsible=0;dropTarget=0;points=[[0,0.5],[1,0.5]];portConstraint=eastwest;top=0;left=0;right=0;bottom=0;movable=1;resizable=1;rotatable=1;deletable=1;editable=1;locked=0;connectable=1;fontSize=15;" parent="JNjkFObuWSihsPi3QTzy-88" vertex="1">
          <mxGeometry y="240" width="205" height="30" as="geometry" />
        </mxCell>
        <mxCell id="GhYaBqCUdXHmLidMKI3i-2" value="" style="shape=partialRectangle;connectable=0;fillColor=none;top=0;left=0;bottom=0;right=0;editable=1;overflow=hidden;whiteSpace=wrap;html=1;fontSize=15;" parent="GhYaBqCUdXHmLidMKI3i-1" vertex="1">
          <mxGeometry width="30" height="30" as="geometry">
            <mxRectangle width="30" height="30" as="alternateBounds" />
          </mxGeometry>
        </mxCell>
        <mxCell id="GhYaBqCUdXHmLidMKI3i-3" value="&lt;span style=&quot;font-size: 15px;&quot;&gt;room_status&lt;/span&gt;" style="shape=partialRectangle;connectable=0;fillColor=none;top=0;left=0;bottom=0;right=0;align=left;spacingLeft=6;overflow=hidden;whiteSpace=wrap;html=1;fontStyle=1;fontSize=15;" parent="GhYaBqCUdXHmLidMKI3i-1" vertex="1">
          <mxGeometry x="30" width="175" height="30" as="geometry">
            <mxRectangle width="175" height="30" as="alternateBounds" />
          </mxGeometry>
        </mxCell>
        <mxCell id="JNjkFObuWSihsPi3QTzy-113" value="bookings" style="shape=table;startSize=30;container=1;collapsible=1;childLayout=tableLayout;fixedRows=1;rowLines=0;fontStyle=1;align=center;resizeLast=1;html=1;fontSize=15;" parent="1" vertex="1">
          <mxGeometry x="270" y="1480" width="219.89" height="240" as="geometry" />
        </mxCell>
        <mxCell id="JNjkFObuWSihsPi3QTzy-114" value="" style="shape=tableRow;horizontal=0;startSize=0;swimlaneHead=0;swimlaneBody=0;fillColor=none;collapsible=0;dropTarget=0;points=[[0,0.5],[1,0.5]];portConstraint=eastwest;top=0;left=0;right=0;bottom=1;fontSize=15;" parent="JNjkFObuWSihsPi3QTzy-113" vertex="1">
          <mxGeometry y="30" width="219.89" height="30" as="geometry" />
        </mxCell>
        <mxCell id="JNjkFObuWSihsPi3QTzy-115" value="PK" style="shape=partialRectangle;connectable=0;fillColor=none;top=0;left=0;bottom=0;right=0;fontStyle=1;overflow=hidden;whiteSpace=wrap;html=1;fontSize=15;" parent="JNjkFObuWSihsPi3QTzy-114" vertex="1">
          <mxGeometry width="30" height="30" as="geometry">
            <mxRectangle width="30" height="30" as="alternateBounds" />
          </mxGeometry>
        </mxCell>
        <mxCell id="JNjkFObuWSihsPi3QTzy-116" value="booking_number" style="shape=partialRectangle;connectable=0;fillColor=none;top=0;left=0;bottom=0;right=0;align=left;spacingLeft=6;fontStyle=5;overflow=hidden;whiteSpace=wrap;html=1;fontSize=15;" parent="JNjkFObuWSihsPi3QTzy-114" vertex="1">
          <mxGeometry x="30" width="189.89" height="30" as="geometry">
            <mxRectangle width="189.89" height="30" as="alternateBounds" />
          </mxGeometry>
        </mxCell>
        <mxCell id="JNjkFObuWSihsPi3QTzy-120" value="" style="shape=tableRow;horizontal=0;startSize=0;swimlaneHead=0;swimlaneBody=0;fillColor=none;collapsible=0;dropTarget=0;points=[[0,0.5],[1,0.5]];portConstraint=eastwest;top=0;left=0;right=0;bottom=0;fontSize=15;" parent="JNjkFObuWSihsPi3QTzy-113" vertex="1">
          <mxGeometry y="60" width="219.89" height="30" as="geometry" />
        </mxCell>
        <mxCell id="JNjkFObuWSihsPi3QTzy-121" value="" style="shape=partialRectangle;connectable=0;fillColor=none;top=0;left=0;bottom=0;right=0;editable=1;overflow=hidden;whiteSpace=wrap;html=1;fontSize=15;" parent="JNjkFObuWSihsPi3QTzy-120" vertex="1">
          <mxGeometry width="30" height="30" as="geometry">
            <mxRectangle width="30" height="30" as="alternateBounds" />
          </mxGeometry>
        </mxCell>
        <mxCell id="JNjkFObuWSihsPi3QTzy-122" value="booking_start_date" style="shape=partialRectangle;connectable=0;fillColor=none;top=0;left=0;bottom=0;right=0;align=left;spacingLeft=6;overflow=hidden;whiteSpace=wrap;html=1;fontStyle=1;fontSize=15;" parent="JNjkFObuWSihsPi3QTzy-120" vertex="1">
          <mxGeometry x="30" width="189.89" height="30" as="geometry">
            <mxRectangle width="189.89" height="30" as="alternateBounds" />
          </mxGeometry>
        </mxCell>
        <mxCell id="JNjkFObuWSihsPi3QTzy-123" value="" style="shape=tableRow;horizontal=0;startSize=0;swimlaneHead=0;swimlaneBody=0;fillColor=none;collapsible=0;dropTarget=0;points=[[0,0.5],[1,0.5]];portConstraint=eastwest;top=0;left=0;right=0;bottom=0;fontStyle=1;fontSize=15;" parent="JNjkFObuWSihsPi3QTzy-113" vertex="1">
          <mxGeometry y="90" width="219.89" height="30" as="geometry" />
        </mxCell>
        <mxCell id="JNjkFObuWSihsPi3QTzy-124" value="" style="shape=partialRectangle;connectable=0;fillColor=none;top=0;left=0;bottom=0;right=0;editable=1;overflow=hidden;whiteSpace=wrap;html=1;fontSize=15;" parent="JNjkFObuWSihsPi3QTzy-123" vertex="1">
          <mxGeometry width="30" height="30" as="geometry">
            <mxRectangle width="30" height="30" as="alternateBounds" />
          </mxGeometry>
        </mxCell>
        <mxCell id="JNjkFObuWSihsPi3QTzy-125" value="booking_end_date" style="shape=partialRectangle;connectable=0;fillColor=none;top=0;left=0;bottom=0;right=0;align=left;spacingLeft=6;overflow=hidden;whiteSpace=wrap;html=1;fontStyle=1;fontSize=15;" parent="JNjkFObuWSihsPi3QTzy-123" vertex="1">
          <mxGeometry x="30" width="189.89" height="30" as="geometry">
            <mxRectangle width="189.89" height="30" as="alternateBounds" />
          </mxGeometry>
        </mxCell>
        <mxCell id="kjsFCcRXz8dB2E8ujbUS-42" value="" style="shape=tableRow;horizontal=0;startSize=0;swimlaneHead=0;swimlaneBody=0;fillColor=none;collapsible=0;dropTarget=0;points=[[0,0.5],[1,0.5]];portConstraint=eastwest;top=0;left=0;right=0;bottom=0;fontSize=15;" parent="JNjkFObuWSihsPi3QTzy-113" vertex="1">
          <mxGeometry y="120" width="219.89" height="30" as="geometry" />
        </mxCell>
        <mxCell id="kjsFCcRXz8dB2E8ujbUS-43" value="FK1" style="shape=partialRectangle;connectable=0;fillColor=none;top=0;left=0;bottom=0;right=0;editable=1;overflow=hidden;whiteSpace=wrap;html=1;fontSize=15;" parent="kjsFCcRXz8dB2E8ujbUS-42" vertex="1">
          <mxGeometry width="30" height="30" as="geometry">
            <mxRectangle width="30" height="30" as="alternateBounds" />
          </mxGeometry>
        </mxCell>
        <mxCell id="kjsFCcRXz8dB2E8ujbUS-44" value="booking_invoice_id" style="shape=partialRectangle;connectable=0;fillColor=none;top=0;left=0;bottom=0;right=0;align=left;spacingLeft=6;overflow=hidden;whiteSpace=wrap;html=1;fontSize=15;" parent="kjsFCcRXz8dB2E8ujbUS-42" vertex="1">
          <mxGeometry x="30" width="189.89" height="30" as="geometry">
            <mxRectangle width="189.89" height="30" as="alternateBounds" />
          </mxGeometry>
        </mxCell>
        <mxCell id="kjsFCcRXz8dB2E8ujbUS-59" value="" style="shape=tableRow;horizontal=0;startSize=0;swimlaneHead=0;swimlaneBody=0;fillColor=none;collapsible=0;dropTarget=0;points=[[0,0.5],[1,0.5]];portConstraint=eastwest;top=0;left=0;right=0;bottom=0;fontSize=15;" parent="JNjkFObuWSihsPi3QTzy-113" vertex="1">
          <mxGeometry y="150" width="219.89" height="30" as="geometry" />
        </mxCell>
        <mxCell id="kjsFCcRXz8dB2E8ujbUS-60" value="&lt;b style=&quot;font-size: 15px;&quot;&gt;FK2&lt;/b&gt;" style="shape=partialRectangle;connectable=0;fillColor=none;top=0;left=0;bottom=0;right=0;editable=1;overflow=hidden;whiteSpace=wrap;html=1;fontSize=15;" parent="kjsFCcRXz8dB2E8ujbUS-59" vertex="1">
          <mxGeometry width="30" height="30" as="geometry">
            <mxRectangle width="30" height="30" as="alternateBounds" />
          </mxGeometry>
        </mxCell>
        <mxCell id="kjsFCcRXz8dB2E8ujbUS-61" value="&lt;b style=&quot;font-size: 15px;&quot;&gt;booking_guest_id&lt;/b&gt;" style="shape=partialRectangle;connectable=0;fillColor=none;top=0;left=0;bottom=0;right=0;align=left;spacingLeft=6;overflow=hidden;whiteSpace=wrap;html=1;fontSize=15;" parent="kjsFCcRXz8dB2E8ujbUS-59" vertex="1">
          <mxGeometry x="30" width="189.89" height="30" as="geometry">
            <mxRectangle width="189.89" height="30" as="alternateBounds" />
          </mxGeometry>
        </mxCell>
        <mxCell id="kjsFCcRXz8dB2E8ujbUS-66" value="" style="shape=tableRow;horizontal=0;startSize=0;swimlaneHead=0;swimlaneBody=0;fillColor=none;collapsible=0;dropTarget=0;points=[[0,0.5],[1,0.5]];portConstraint=eastwest;top=0;left=0;right=0;bottom=0;fontSize=15;" parent="JNjkFObuWSihsPi3QTzy-113" vertex="1">
          <mxGeometry y="180" width="219.89" height="30" as="geometry" />
        </mxCell>
        <mxCell id="kjsFCcRXz8dB2E8ujbUS-67" value="&lt;b style=&quot;font-size: 15px;&quot;&gt;FK3&lt;/b&gt;" style="shape=partialRectangle;connectable=0;fillColor=none;top=0;left=0;bottom=0;right=0;editable=1;overflow=hidden;whiteSpace=wrap;html=1;fontSize=15;" parent="kjsFCcRXz8dB2E8ujbUS-66" vertex="1">
          <mxGeometry width="30" height="30" as="geometry">
            <mxRectangle width="30" height="30" as="alternateBounds" />
          </mxGeometry>
        </mxCell>
        <mxCell id="kjsFCcRXz8dB2E8ujbUS-68" value="&lt;b style=&quot;font-size: 15px;&quot;&gt;booking_room_id&lt;/b&gt;" style="shape=partialRectangle;connectable=0;fillColor=none;top=0;left=0;bottom=0;right=0;align=left;spacingLeft=6;overflow=hidden;whiteSpace=wrap;html=1;fontSize=15;" parent="kjsFCcRXz8dB2E8ujbUS-66" vertex="1">
          <mxGeometry x="30" width="189.89" height="30" as="geometry">
            <mxRectangle width="189.89" height="30" as="alternateBounds" />
          </mxGeometry>
        </mxCell>
        <mxCell id="kjsFCcRXz8dB2E8ujbUS-72" value="" style="shape=tableRow;horizontal=0;startSize=0;swimlaneHead=0;swimlaneBody=0;fillColor=none;collapsible=0;dropTarget=0;points=[[0,0.5],[1,0.5]];portConstraint=eastwest;top=0;left=0;right=0;bottom=0;fontSize=15;" parent="JNjkFObuWSihsPi3QTzy-113" vertex="1">
          <mxGeometry y="210" width="219.89" height="30" as="geometry" />
        </mxCell>
        <mxCell id="kjsFCcRXz8dB2E8ujbUS-73" value="&lt;b style=&quot;font-size: 15px;&quot;&gt;FK4&lt;/b&gt;" style="shape=partialRectangle;connectable=0;fillColor=none;top=0;left=0;bottom=0;right=0;editable=1;overflow=hidden;whiteSpace=wrap;html=1;fontSize=15;" parent="kjsFCcRXz8dB2E8ujbUS-72" vertex="1">
          <mxGeometry width="30" height="30" as="geometry">
            <mxRectangle width="30" height="30" as="alternateBounds" />
          </mxGeometry>
        </mxCell>
        <mxCell id="kjsFCcRXz8dB2E8ujbUS-74" value="&lt;b style=&quot;font-size: 15px;&quot;&gt;booking_guest_rating_id&lt;/b&gt;" style="shape=partialRectangle;connectable=0;fillColor=none;top=0;left=0;bottom=0;right=0;align=left;spacingLeft=6;overflow=hidden;whiteSpace=wrap;html=1;fontSize=15;" parent="kjsFCcRXz8dB2E8ujbUS-72" vertex="1">
          <mxGeometry x="30" width="189.89" height="30" as="geometry">
            <mxRectangle width="189.89" height="30" as="alternateBounds" />
          </mxGeometry>
        </mxCell>
        <mxCell id="JNjkFObuWSihsPi3QTzy-126" value="guests" style="shape=table;startSize=30;container=1;collapsible=1;childLayout=tableLayout;fixedRows=1;rowLines=0;fontStyle=1;align=center;resizeLast=1;html=1;fontSize=15;" parent="1" vertex="1">
          <mxGeometry x="-60" y="1470" width="209.89" height="330" as="geometry" />
        </mxCell>
        <mxCell id="JNjkFObuWSihsPi3QTzy-127" value="" style="shape=tableRow;horizontal=0;startSize=0;swimlaneHead=0;swimlaneBody=0;fillColor=none;collapsible=0;dropTarget=0;points=[[0,0.5],[1,0.5]];portConstraint=eastwest;top=0;left=0;right=0;bottom=1;fontSize=15;" parent="JNjkFObuWSihsPi3QTzy-126" vertex="1">
          <mxGeometry y="30" width="209.89" height="30" as="geometry" />
        </mxCell>
        <mxCell id="JNjkFObuWSihsPi3QTzy-128" value="PK" style="shape=partialRectangle;connectable=0;fillColor=none;top=0;left=0;bottom=0;right=0;fontStyle=1;overflow=hidden;whiteSpace=wrap;html=1;fontSize=15;" parent="JNjkFObuWSihsPi3QTzy-127" vertex="1">
          <mxGeometry width="30" height="30" as="geometry">
            <mxRectangle width="30" height="30" as="alternateBounds" />
          </mxGeometry>
        </mxCell>
        <mxCell id="JNjkFObuWSihsPi3QTzy-129" value="guest_id" style="shape=partialRectangle;connectable=0;fillColor=none;top=0;left=0;bottom=0;right=0;align=left;spacingLeft=6;fontStyle=5;overflow=hidden;whiteSpace=wrap;html=1;fontSize=15;" parent="JNjkFObuWSihsPi3QTzy-127" vertex="1">
          <mxGeometry x="30" width="179.89" height="30" as="geometry">
            <mxRectangle width="179.89" height="30" as="alternateBounds" />
          </mxGeometry>
        </mxCell>
        <mxCell id="JNjkFObuWSihsPi3QTzy-130" value="" style="shape=tableRow;horizontal=0;startSize=0;swimlaneHead=0;swimlaneBody=0;fillColor=none;collapsible=0;dropTarget=0;points=[[0,0.5],[1,0.5]];portConstraint=eastwest;top=0;left=0;right=0;bottom=0;fontSize=15;" parent="JNjkFObuWSihsPi3QTzy-126" vertex="1">
          <mxGeometry y="60" width="209.89" height="30" as="geometry" />
        </mxCell>
        <mxCell id="JNjkFObuWSihsPi3QTzy-131" value="" style="shape=partialRectangle;connectable=0;fillColor=none;top=0;left=0;bottom=0;right=0;editable=1;overflow=hidden;whiteSpace=wrap;html=1;fontSize=15;" parent="JNjkFObuWSihsPi3QTzy-130" vertex="1">
          <mxGeometry width="30" height="30" as="geometry">
            <mxRectangle width="30" height="30" as="alternateBounds" />
          </mxGeometry>
        </mxCell>
        <mxCell id="JNjkFObuWSihsPi3QTzy-132" value="guest_firstname" style="shape=partialRectangle;connectable=0;fillColor=none;top=0;left=0;bottom=0;right=0;align=left;spacingLeft=6;overflow=hidden;whiteSpace=wrap;html=1;fontStyle=1;fontSize=15;" parent="JNjkFObuWSihsPi3QTzy-130" vertex="1">
          <mxGeometry x="30" width="179.89" height="30" as="geometry">
            <mxRectangle width="179.89" height="30" as="alternateBounds" />
          </mxGeometry>
        </mxCell>
        <mxCell id="JNjkFObuWSihsPi3QTzy-133" value="" style="shape=tableRow;horizontal=0;startSize=0;swimlaneHead=0;swimlaneBody=0;fillColor=none;collapsible=0;dropTarget=0;points=[[0,0.5],[1,0.5]];portConstraint=eastwest;top=0;left=0;right=0;bottom=0;fontSize=15;" parent="JNjkFObuWSihsPi3QTzy-126" vertex="1">
          <mxGeometry y="90" width="209.89" height="30" as="geometry" />
        </mxCell>
        <mxCell id="JNjkFObuWSihsPi3QTzy-134" value="" style="shape=partialRectangle;connectable=0;fillColor=none;top=0;left=0;bottom=0;right=0;editable=1;overflow=hidden;whiteSpace=wrap;html=1;fontSize=15;" parent="JNjkFObuWSihsPi3QTzy-133" vertex="1">
          <mxGeometry width="30" height="30" as="geometry">
            <mxRectangle width="30" height="30" as="alternateBounds" />
          </mxGeometry>
        </mxCell>
        <mxCell id="JNjkFObuWSihsPi3QTzy-135" value="guest_lastname" style="shape=partialRectangle;connectable=0;fillColor=none;top=0;left=0;bottom=0;right=0;align=left;spacingLeft=6;overflow=hidden;whiteSpace=wrap;html=1;fontStyle=1;fontSize=15;" parent="JNjkFObuWSihsPi3QTzy-133" vertex="1">
          <mxGeometry x="30" width="179.89" height="30" as="geometry">
            <mxRectangle width="179.89" height="30" as="alternateBounds" />
          </mxGeometry>
        </mxCell>
        <mxCell id="JNjkFObuWSihsPi3QTzy-136" value="" style="shape=tableRow;horizontal=0;startSize=0;swimlaneHead=0;swimlaneBody=0;fillColor=none;collapsible=0;dropTarget=0;points=[[0,0.5],[1,0.5]];portConstraint=eastwest;top=0;left=0;right=0;bottom=0;fontSize=15;" parent="JNjkFObuWSihsPi3QTzy-126" vertex="1">
          <mxGeometry y="120" width="209.89" height="30" as="geometry" />
        </mxCell>
        <mxCell id="JNjkFObuWSihsPi3QTzy-137" value="" style="shape=partialRectangle;connectable=0;fillColor=none;top=0;left=0;bottom=0;right=0;editable=1;overflow=hidden;whiteSpace=wrap;html=1;fontSize=15;" parent="JNjkFObuWSihsPi3QTzy-136" vertex="1">
          <mxGeometry width="30" height="30" as="geometry">
            <mxRectangle width="30" height="30" as="alternateBounds" />
          </mxGeometry>
        </mxCell>
        <mxCell id="JNjkFObuWSihsPi3QTzy-138" value="guest_DOB" style="shape=partialRectangle;connectable=0;fillColor=none;top=0;left=0;bottom=0;right=0;align=left;spacingLeft=6;overflow=hidden;whiteSpace=wrap;html=1;fontStyle=1;fontSize=15;" parent="JNjkFObuWSihsPi3QTzy-136" vertex="1">
          <mxGeometry x="30" width="179.89" height="30" as="geometry">
            <mxRectangle width="179.89" height="30" as="alternateBounds" />
          </mxGeometry>
        </mxCell>
        <mxCell id="JNjkFObuWSihsPi3QTzy-142" value="" style="shape=tableRow;horizontal=0;startSize=0;swimlaneHead=0;swimlaneBody=0;fillColor=none;collapsible=0;dropTarget=0;points=[[0,0.5],[1,0.5]];portConstraint=eastwest;top=0;left=0;right=0;bottom=0;fontSize=15;" parent="JNjkFObuWSihsPi3QTzy-126" vertex="1">
          <mxGeometry y="150" width="209.89" height="30" as="geometry" />
        </mxCell>
        <mxCell id="JNjkFObuWSihsPi3QTzy-143" value="&lt;b style=&quot;font-size: 15px;&quot;&gt;U&lt;/b&gt;" style="shape=partialRectangle;connectable=0;fillColor=none;top=0;left=0;bottom=0;right=0;editable=1;overflow=hidden;whiteSpace=wrap;html=1;fontSize=15;" parent="JNjkFObuWSihsPi3QTzy-142" vertex="1">
          <mxGeometry width="30" height="30" as="geometry">
            <mxRectangle width="30" height="30" as="alternateBounds" />
          </mxGeometry>
        </mxCell>
        <mxCell id="JNjkFObuWSihsPi3QTzy-144" value="guest_email" style="shape=partialRectangle;connectable=0;fillColor=none;top=0;left=0;bottom=0;right=0;align=left;spacingLeft=6;overflow=hidden;whiteSpace=wrap;html=1;fontStyle=1;fontSize=15;" parent="JNjkFObuWSihsPi3QTzy-142" vertex="1">
          <mxGeometry x="30" width="179.89" height="30" as="geometry">
            <mxRectangle width="179.89" height="30" as="alternateBounds" />
          </mxGeometry>
        </mxCell>
        <mxCell id="JNjkFObuWSihsPi3QTzy-145" value="" style="shape=tableRow;horizontal=0;startSize=0;swimlaneHead=0;swimlaneBody=0;fillColor=none;collapsible=0;dropTarget=0;points=[[0,0.5],[1,0.5]];portConstraint=eastwest;top=0;left=0;right=0;bottom=0;fontSize=15;" parent="JNjkFObuWSihsPi3QTzy-126" vertex="1">
          <mxGeometry y="180" width="209.89" height="30" as="geometry" />
        </mxCell>
        <mxCell id="JNjkFObuWSihsPi3QTzy-146" value="" style="shape=partialRectangle;connectable=0;fillColor=none;top=0;left=0;bottom=0;right=0;editable=1;overflow=hidden;whiteSpace=wrap;html=1;fontSize=15;" parent="JNjkFObuWSihsPi3QTzy-145" vertex="1">
          <mxGeometry width="30" height="30" as="geometry">
            <mxRectangle width="30" height="30" as="alternateBounds" />
          </mxGeometry>
        </mxCell>
        <mxCell id="JNjkFObuWSihsPi3QTzy-147" value="guest_phone_number" style="shape=partialRectangle;connectable=0;fillColor=none;top=0;left=0;bottom=0;right=0;align=left;spacingLeft=6;overflow=hidden;whiteSpace=wrap;html=1;fontStyle=1;fontSize=15;" parent="JNjkFObuWSihsPi3QTzy-145" vertex="1">
          <mxGeometry x="30" width="179.89" height="30" as="geometry">
            <mxRectangle width="179.89" height="30" as="alternateBounds" />
          </mxGeometry>
        </mxCell>
        <mxCell id="JNjkFObuWSihsPi3QTzy-148" value="" style="shape=tableRow;horizontal=0;startSize=0;swimlaneHead=0;swimlaneBody=0;fillColor=none;collapsible=0;dropTarget=0;points=[[0,0.5],[1,0.5]];portConstraint=eastwest;top=0;left=0;right=0;bottom=0;fontSize=15;" parent="JNjkFObuWSihsPi3QTzy-126" vertex="1">
          <mxGeometry y="210" width="209.89" height="30" as="geometry" />
        </mxCell>
        <mxCell id="JNjkFObuWSihsPi3QTzy-149" value="" style="shape=partialRectangle;connectable=0;fillColor=none;top=0;left=0;bottom=0;right=0;editable=1;overflow=hidden;whiteSpace=wrap;html=1;fontSize=15;" parent="JNjkFObuWSihsPi3QTzy-148" vertex="1">
          <mxGeometry width="30" height="30" as="geometry">
            <mxRectangle width="30" height="30" as="alternateBounds" />
          </mxGeometry>
        </mxCell>
        <mxCell id="JNjkFObuWSihsPi3QTzy-150" value="guest_address" style="shape=partialRectangle;connectable=0;fillColor=none;top=0;left=0;bottom=0;right=0;align=left;spacingLeft=6;overflow=hidden;whiteSpace=wrap;html=1;fontStyle=1;fontSize=15;" parent="JNjkFObuWSihsPi3QTzy-148" vertex="1">
          <mxGeometry x="30" width="179.89" height="30" as="geometry">
            <mxRectangle width="179.89" height="30" as="alternateBounds" />
          </mxGeometry>
        </mxCell>
        <mxCell id="JNjkFObuWSihsPi3QTzy-151" value="" style="shape=tableRow;horizontal=0;startSize=0;swimlaneHead=0;swimlaneBody=0;fillColor=none;collapsible=0;dropTarget=0;points=[[0,0.5],[1,0.5]];portConstraint=eastwest;top=0;left=0;right=0;bottom=0;fontSize=15;" parent="JNjkFObuWSihsPi3QTzy-126" vertex="1">
          <mxGeometry y="240" width="209.89" height="30" as="geometry" />
        </mxCell>
        <mxCell id="JNjkFObuWSihsPi3QTzy-152" value="" style="shape=partialRectangle;connectable=0;fillColor=none;top=0;left=0;bottom=0;right=0;editable=1;overflow=hidden;whiteSpace=wrap;html=1;fontSize=15;" parent="JNjkFObuWSihsPi3QTzy-151" vertex="1">
          <mxGeometry width="30" height="30" as="geometry">
            <mxRectangle width="30" height="30" as="alternateBounds" />
          </mxGeometry>
        </mxCell>
        <mxCell id="JNjkFObuWSihsPi3QTzy-153" value="guest_city" style="shape=partialRectangle;connectable=0;fillColor=none;top=0;left=0;bottom=0;right=0;align=left;spacingLeft=6;overflow=hidden;whiteSpace=wrap;html=1;fontStyle=1;fontSize=15;" parent="JNjkFObuWSihsPi3QTzy-151" vertex="1">
          <mxGeometry x="30" width="179.89" height="30" as="geometry">
            <mxRectangle width="179.89" height="30" as="alternateBounds" />
          </mxGeometry>
        </mxCell>
        <mxCell id="JNjkFObuWSihsPi3QTzy-154" value="" style="shape=tableRow;horizontal=0;startSize=0;swimlaneHead=0;swimlaneBody=0;fillColor=none;collapsible=0;dropTarget=0;points=[[0,0.5],[1,0.5]];portConstraint=eastwest;top=0;left=0;right=0;bottom=0;fontSize=15;" parent="JNjkFObuWSihsPi3QTzy-126" vertex="1">
          <mxGeometry y="270" width="209.89" height="30" as="geometry" />
        </mxCell>
        <mxCell id="JNjkFObuWSihsPi3QTzy-155" value="" style="shape=partialRectangle;connectable=0;fillColor=none;top=0;left=0;bottom=0;right=0;editable=1;overflow=hidden;whiteSpace=wrap;html=1;fontSize=15;" parent="JNjkFObuWSihsPi3QTzy-154" vertex="1">
          <mxGeometry width="30" height="30" as="geometry">
            <mxRectangle width="30" height="30" as="alternateBounds" />
          </mxGeometry>
        </mxCell>
        <mxCell id="JNjkFObuWSihsPi3QTzy-156" value="guest_country" style="shape=partialRectangle;connectable=0;fillColor=none;top=0;left=0;bottom=0;right=0;align=left;spacingLeft=6;overflow=hidden;whiteSpace=wrap;html=1;fontStyle=1;fontSize=15;" parent="JNjkFObuWSihsPi3QTzy-154" vertex="1">
          <mxGeometry x="30" width="179.89" height="30" as="geometry">
            <mxRectangle width="179.89" height="30" as="alternateBounds" />
          </mxGeometry>
        </mxCell>
        <mxCell id="JNjkFObuWSihsPi3QTzy-157" value="" style="shape=tableRow;horizontal=0;startSize=0;swimlaneHead=0;swimlaneBody=0;fillColor=none;collapsible=0;dropTarget=0;points=[[0,0.5],[1,0.5]];portConstraint=eastwest;top=0;left=0;right=0;bottom=0;fontSize=15;" parent="JNjkFObuWSihsPi3QTzy-126" vertex="1">
          <mxGeometry y="300" width="209.89" height="30" as="geometry" />
        </mxCell>
        <mxCell id="JNjkFObuWSihsPi3QTzy-158" value="FK1" style="shape=partialRectangle;connectable=0;fillColor=none;top=0;left=0;bottom=0;right=0;editable=1;overflow=hidden;whiteSpace=wrap;html=1;fontSize=15;" parent="JNjkFObuWSihsPi3QTzy-157" vertex="1">
          <mxGeometry width="30" height="30" as="geometry">
            <mxRectangle width="30" height="30" as="alternateBounds" />
          </mxGeometry>
        </mxCell>
        <mxCell id="JNjkFObuWSihsPi3QTzy-159" value="guest_guest_rating_id" style="shape=partialRectangle;connectable=0;fillColor=none;top=0;left=0;bottom=0;right=0;align=left;spacingLeft=6;overflow=hidden;whiteSpace=wrap;html=1;fontSize=15;" parent="JNjkFObuWSihsPi3QTzy-157" vertex="1">
          <mxGeometry x="30" width="179.89" height="30" as="geometry">
            <mxRectangle width="179.89" height="30" as="alternateBounds" />
          </mxGeometry>
        </mxCell>
        <mxCell id="JNjkFObuWSihsPi3QTzy-160" value="guest_ratings" style="shape=table;startSize=30;container=1;collapsible=1;childLayout=tableLayout;fixedRows=1;rowLines=0;fontStyle=1;align=center;resizeLast=1;html=1;fontSize=15;" parent="1" vertex="1">
          <mxGeometry x="259.89" y="1880" width="210" height="150" as="geometry" />
        </mxCell>
        <mxCell id="JNjkFObuWSihsPi3QTzy-161" value="" style="shape=tableRow;horizontal=0;startSize=0;swimlaneHead=0;swimlaneBody=0;fillColor=none;collapsible=0;dropTarget=0;points=[[0,0.5],[1,0.5]];portConstraint=eastwest;top=0;left=0;right=0;bottom=1;fontSize=15;" parent="JNjkFObuWSihsPi3QTzy-160" vertex="1">
          <mxGeometry y="30" width="210" height="30" as="geometry" />
        </mxCell>
        <mxCell id="JNjkFObuWSihsPi3QTzy-162" value="PK" style="shape=partialRectangle;connectable=0;fillColor=none;top=0;left=0;bottom=0;right=0;fontStyle=1;overflow=hidden;whiteSpace=wrap;html=1;fontSize=15;" parent="JNjkFObuWSihsPi3QTzy-161" vertex="1">
          <mxGeometry width="30" height="30" as="geometry">
            <mxRectangle width="30" height="30" as="alternateBounds" />
          </mxGeometry>
        </mxCell>
        <mxCell id="JNjkFObuWSihsPi3QTzy-163" value="guest_rating_id" style="shape=partialRectangle;connectable=0;fillColor=none;top=0;left=0;bottom=0;right=0;align=left;spacingLeft=6;fontStyle=5;overflow=hidden;whiteSpace=wrap;html=1;fontSize=15;" parent="JNjkFObuWSihsPi3QTzy-161" vertex="1">
          <mxGeometry x="30" width="180" height="30" as="geometry">
            <mxRectangle width="180" height="30" as="alternateBounds" />
          </mxGeometry>
        </mxCell>
        <mxCell id="JNjkFObuWSihsPi3QTzy-164" value="" style="shape=tableRow;horizontal=0;startSize=0;swimlaneHead=0;swimlaneBody=0;fillColor=none;collapsible=0;dropTarget=0;points=[[0,0.5],[1,0.5]];portConstraint=eastwest;top=0;left=0;right=0;bottom=0;fontSize=15;" parent="JNjkFObuWSihsPi3QTzy-160" vertex="1">
          <mxGeometry y="60" width="210" height="30" as="geometry" />
        </mxCell>
        <mxCell id="JNjkFObuWSihsPi3QTzy-165" value="" style="shape=partialRectangle;connectable=0;fillColor=none;top=0;left=0;bottom=0;right=0;editable=1;overflow=hidden;whiteSpace=wrap;html=1;fontSize=15;" parent="JNjkFObuWSihsPi3QTzy-164" vertex="1">
          <mxGeometry width="30" height="30" as="geometry">
            <mxRectangle width="30" height="30" as="alternateBounds" />
          </mxGeometry>
        </mxCell>
        <mxCell id="JNjkFObuWSihsPi3QTzy-166" value="guest_rating_value" style="shape=partialRectangle;connectable=0;fillColor=none;top=0;left=0;bottom=0;right=0;align=left;spacingLeft=6;overflow=hidden;whiteSpace=wrap;html=1;fontStyle=0;fontSize=15;" parent="JNjkFObuWSihsPi3QTzy-164" vertex="1">
          <mxGeometry x="30" width="180" height="30" as="geometry">
            <mxRectangle width="180" height="30" as="alternateBounds" />
          </mxGeometry>
        </mxCell>
        <mxCell id="JNjkFObuWSihsPi3QTzy-167" value="" style="shape=tableRow;horizontal=0;startSize=0;swimlaneHead=0;swimlaneBody=0;fillColor=none;collapsible=0;dropTarget=0;points=[[0,0.5],[1,0.5]];portConstraint=eastwest;top=0;left=0;right=0;bottom=0;fontStyle=1;fontSize=15;" parent="JNjkFObuWSihsPi3QTzy-160" vertex="1">
          <mxGeometry y="90" width="210" height="30" as="geometry" />
        </mxCell>
        <mxCell id="JNjkFObuWSihsPi3QTzy-168" value="" style="shape=partialRectangle;connectable=0;fillColor=none;top=0;left=0;bottom=0;right=0;editable=1;overflow=hidden;whiteSpace=wrap;html=1;fontSize=15;" parent="JNjkFObuWSihsPi3QTzy-167" vertex="1">
          <mxGeometry width="30" height="30" as="geometry">
            <mxRectangle width="30" height="30" as="alternateBounds" />
          </mxGeometry>
        </mxCell>
        <mxCell id="JNjkFObuWSihsPi3QTzy-169" value="&lt;span style=&quot;font-weight: normal; font-size: 15px;&quot;&gt;guest_rating_comment&lt;/span&gt;" style="shape=partialRectangle;connectable=0;fillColor=none;top=0;left=0;bottom=0;right=0;align=left;spacingLeft=6;overflow=hidden;whiteSpace=wrap;html=1;fontStyle=1;fontSize=15;" parent="JNjkFObuWSihsPi3QTzy-167" vertex="1">
          <mxGeometry x="30" width="180" height="30" as="geometry">
            <mxRectangle width="180" height="30" as="alternateBounds" />
          </mxGeometry>
        </mxCell>
        <mxCell id="kjsFCcRXz8dB2E8ujbUS-56" value="" style="shape=tableRow;horizontal=0;startSize=0;swimlaneHead=0;swimlaneBody=0;fillColor=none;collapsible=0;dropTarget=0;points=[[0,0.5],[1,0.5]];portConstraint=eastwest;top=0;left=0;right=0;bottom=0;fontSize=15;" parent="JNjkFObuWSihsPi3QTzy-160" vertex="1">
          <mxGeometry y="120" width="210" height="30" as="geometry" />
        </mxCell>
        <mxCell id="kjsFCcRXz8dB2E8ujbUS-57" value="" style="shape=partialRectangle;connectable=0;fillColor=none;top=0;left=0;bottom=0;right=0;editable=1;overflow=hidden;whiteSpace=wrap;html=1;fontSize=15;" parent="kjsFCcRXz8dB2E8ujbUS-56" vertex="1">
          <mxGeometry width="30" height="30" as="geometry">
            <mxRectangle width="30" height="30" as="alternateBounds" />
          </mxGeometry>
        </mxCell>
        <mxCell id="kjsFCcRXz8dB2E8ujbUS-58" value="guest_rating_date" style="shape=partialRectangle;connectable=0;fillColor=none;top=0;left=0;bottom=0;right=0;align=left;spacingLeft=6;overflow=hidden;whiteSpace=wrap;html=1;fontStyle=0;fontSize=15;" parent="kjsFCcRXz8dB2E8ujbUS-56" vertex="1">
          <mxGeometry x="30" width="180" height="30" as="geometry">
            <mxRectangle width="180" height="30" as="alternateBounds" />
          </mxGeometry>
        </mxCell>
        <mxCell id="JNjkFObuWSihsPi3QTzy-176" style="edgeStyle=orthogonalEdgeStyle;rounded=0;orthogonalLoop=1;jettySize=auto;html=1;entryX=0;entryY=0.5;entryDx=0;entryDy=0;fontSize=15;strokeWidth=2;" parent="1" source="JNjkFObuWSihsPi3QTzy-157" target="JNjkFObuWSihsPi3QTzy-161" edge="1">
          <mxGeometry relative="1" as="geometry" />
        </mxCell>
        <mxCell id="JNjkFObuWSihsPi3QTzy-177" value="payment_methods" style="shape=table;startSize=30;container=1;collapsible=1;childLayout=tableLayout;fixedRows=1;rowLines=0;fontStyle=1;align=center;resizeLast=1;html=1;fontSize=15;" parent="1" vertex="1">
          <mxGeometry x="-380" y="1940" width="230" height="60" as="geometry" />
        </mxCell>
        <mxCell id="JNjkFObuWSihsPi3QTzy-178" value="" style="shape=tableRow;horizontal=0;startSize=0;swimlaneHead=0;swimlaneBody=0;fillColor=none;collapsible=0;dropTarget=0;points=[[0,0.5],[1,0.5]];portConstraint=eastwest;top=0;left=0;right=0;bottom=1;fontSize=15;" parent="JNjkFObuWSihsPi3QTzy-177" vertex="1">
          <mxGeometry y="30" width="230" height="30" as="geometry" />
        </mxCell>
        <mxCell id="JNjkFObuWSihsPi3QTzy-179" value="PK" style="shape=partialRectangle;connectable=0;fillColor=none;top=0;left=0;bottom=0;right=0;fontStyle=1;overflow=hidden;whiteSpace=wrap;html=1;fontSize=15;" parent="JNjkFObuWSihsPi3QTzy-178" vertex="1">
          <mxGeometry width="30" height="30" as="geometry">
            <mxRectangle width="30" height="30" as="alternateBounds" />
          </mxGeometry>
        </mxCell>
        <mxCell id="JNjkFObuWSihsPi3QTzy-180" value="payment_method_type" style="shape=partialRectangle;connectable=0;fillColor=none;top=0;left=0;bottom=0;right=0;align=left;spacingLeft=6;fontStyle=5;overflow=hidden;whiteSpace=wrap;html=1;fontSize=15;" parent="JNjkFObuWSihsPi3QTzy-178" vertex="1">
          <mxGeometry x="30" width="200" height="30" as="geometry">
            <mxRectangle width="200" height="30" as="alternateBounds" />
          </mxGeometry>
        </mxCell>
        <mxCell id="JNjkFObuWSihsPi3QTzy-192" value="invoices" style="shape=table;startSize=30;container=1;collapsible=1;childLayout=tableLayout;fixedRows=1;rowLines=0;fontStyle=1;align=center;resizeLast=1;html=1;fontSize=15;" parent="1" vertex="1">
          <mxGeometry x="-110" y="1250" width="270" height="180" as="geometry" />
        </mxCell>
        <mxCell id="JNjkFObuWSihsPi3QTzy-193" value="" style="shape=tableRow;horizontal=0;startSize=0;swimlaneHead=0;swimlaneBody=0;fillColor=none;collapsible=0;dropTarget=0;points=[[0,0.5],[1,0.5]];portConstraint=eastwest;top=0;left=0;right=0;bottom=1;fontSize=15;" parent="JNjkFObuWSihsPi3QTzy-192" vertex="1">
          <mxGeometry y="30" width="270" height="30" as="geometry" />
        </mxCell>
        <mxCell id="JNjkFObuWSihsPi3QTzy-194" value="PK" style="shape=partialRectangle;connectable=0;fillColor=none;top=0;left=0;bottom=0;right=0;fontStyle=1;overflow=hidden;whiteSpace=wrap;html=1;fontSize=15;" parent="JNjkFObuWSihsPi3QTzy-193" vertex="1">
          <mxGeometry width="30" height="30" as="geometry">
            <mxRectangle width="30" height="30" as="alternateBounds" />
          </mxGeometry>
        </mxCell>
        <mxCell id="JNjkFObuWSihsPi3QTzy-195" value="invoice_id" style="shape=partialRectangle;connectable=0;fillColor=none;top=0;left=0;bottom=0;right=0;align=left;spacingLeft=6;fontStyle=5;overflow=hidden;whiteSpace=wrap;html=1;fontSize=15;" parent="JNjkFObuWSihsPi3QTzy-193" vertex="1">
          <mxGeometry x="30" width="240" height="30" as="geometry">
            <mxRectangle width="240" height="30" as="alternateBounds" />
          </mxGeometry>
        </mxCell>
        <mxCell id="JNjkFObuWSihsPi3QTzy-205" value="" style="shape=tableRow;horizontal=0;startSize=0;swimlaneHead=0;swimlaneBody=0;fillColor=none;collapsible=0;dropTarget=0;points=[[0,0.5],[1,0.5]];portConstraint=eastwest;top=0;left=0;right=0;bottom=0;fontSize=15;" parent="JNjkFObuWSihsPi3QTzy-192" vertex="1">
          <mxGeometry y="60" width="270" height="30" as="geometry" />
        </mxCell>
        <mxCell id="JNjkFObuWSihsPi3QTzy-206" value="" style="shape=partialRectangle;connectable=0;fillColor=none;top=0;left=0;bottom=0;right=0;editable=1;overflow=hidden;whiteSpace=wrap;html=1;fontSize=15;" parent="JNjkFObuWSihsPi3QTzy-205" vertex="1">
          <mxGeometry width="30" height="30" as="geometry">
            <mxRectangle width="30" height="30" as="alternateBounds" />
          </mxGeometry>
        </mxCell>
        <mxCell id="JNjkFObuWSihsPi3QTzy-207" value="&lt;b style=&quot;font-size: 15px;&quot;&gt;invoice_due_date&lt;/b&gt;" style="shape=partialRectangle;connectable=0;fillColor=none;top=0;left=0;bottom=0;right=0;align=left;spacingLeft=6;overflow=hidden;whiteSpace=wrap;html=1;fontSize=15;" parent="JNjkFObuWSihsPi3QTzy-205" vertex="1">
          <mxGeometry x="30" width="240" height="30" as="geometry">
            <mxRectangle width="240" height="30" as="alternateBounds" />
          </mxGeometry>
        </mxCell>
        <mxCell id="JNjkFObuWSihsPi3QTzy-230" value="" style="shape=tableRow;horizontal=0;startSize=0;swimlaneHead=0;swimlaneBody=0;fillColor=none;collapsible=0;dropTarget=0;points=[[0,0.5],[1,0.5]];portConstraint=eastwest;top=0;left=0;right=0;bottom=0;fontSize=15;" parent="JNjkFObuWSihsPi3QTzy-192" vertex="1">
          <mxGeometry y="90" width="270" height="30" as="geometry" />
        </mxCell>
        <mxCell id="JNjkFObuWSihsPi3QTzy-231" value="FK1" style="shape=partialRectangle;connectable=0;fillColor=none;top=0;left=0;bottom=0;right=0;editable=1;overflow=hidden;whiteSpace=wrap;html=1;fontStyle=1;fontSize=15;" parent="JNjkFObuWSihsPi3QTzy-230" vertex="1">
          <mxGeometry width="30" height="30" as="geometry">
            <mxRectangle width="30" height="30" as="alternateBounds" />
          </mxGeometry>
        </mxCell>
        <mxCell id="JNjkFObuWSihsPi3QTzy-232" value="&lt;b style=&quot;font-size: 15px;&quot;&gt;invoice_guest_id&lt;/b&gt;" style="shape=partialRectangle;connectable=0;fillColor=none;top=0;left=0;bottom=0;right=0;align=left;spacingLeft=6;overflow=hidden;whiteSpace=wrap;html=1;fontSize=15;" parent="JNjkFObuWSihsPi3QTzy-230" vertex="1">
          <mxGeometry x="30" width="240" height="30" as="geometry">
            <mxRectangle width="240" height="30" as="alternateBounds" />
          </mxGeometry>
        </mxCell>
        <mxCell id="kjsFCcRXz8dB2E8ujbUS-2" value="" style="shape=tableRow;horizontal=0;startSize=0;swimlaneHead=0;swimlaneBody=0;fillColor=none;collapsible=0;dropTarget=0;points=[[0,0.5],[1,0.5]];portConstraint=eastwest;top=0;left=0;right=0;bottom=0;fontStyle=1;fontSize=15;" parent="JNjkFObuWSihsPi3QTzy-192" vertex="1">
          <mxGeometry y="120" width="270" height="30" as="geometry" />
        </mxCell>
        <mxCell id="kjsFCcRXz8dB2E8ujbUS-3" value="FK2" style="shape=partialRectangle;connectable=0;fillColor=none;top=0;left=0;bottom=0;right=0;editable=1;overflow=hidden;whiteSpace=wrap;html=1;fontStyle=1;fontSize=15;" parent="kjsFCcRXz8dB2E8ujbUS-2" vertex="1">
          <mxGeometry width="30" height="30" as="geometry">
            <mxRectangle width="30" height="30" as="alternateBounds" />
          </mxGeometry>
        </mxCell>
        <mxCell id="kjsFCcRXz8dB2E8ujbUS-4" value="&lt;b style=&quot;font-size: 15px;&quot;&gt;invoice_payment_method_type&lt;/b&gt;" style="shape=partialRectangle;connectable=0;fillColor=none;top=0;left=0;bottom=0;right=0;align=left;spacingLeft=6;overflow=hidden;whiteSpace=wrap;html=1;fontSize=15;" parent="kjsFCcRXz8dB2E8ujbUS-2" vertex="1">
          <mxGeometry x="30" width="240" height="30" as="geometry">
            <mxRectangle width="240" height="30" as="alternateBounds" />
          </mxGeometry>
        </mxCell>
        <mxCell id="kjsFCcRXz8dB2E8ujbUS-35" value="" style="shape=tableRow;horizontal=0;startSize=0;swimlaneHead=0;swimlaneBody=0;fillColor=none;collapsible=0;dropTarget=0;points=[[0,0.5],[1,0.5]];portConstraint=eastwest;top=0;left=0;right=0;bottom=0;fontSize=15;" parent="JNjkFObuWSihsPi3QTzy-192" vertex="1">
          <mxGeometry y="150" width="270" height="30" as="geometry" />
        </mxCell>
        <mxCell id="kjsFCcRXz8dB2E8ujbUS-36" value="FK3" style="shape=partialRectangle;connectable=0;fillColor=none;top=0;left=0;bottom=0;right=0;editable=1;overflow=hidden;whiteSpace=wrap;html=1;fontStyle=1;fontSize=15;" parent="kjsFCcRXz8dB2E8ujbUS-35" vertex="1">
          <mxGeometry width="30" height="30" as="geometry">
            <mxRectangle width="30" height="30" as="alternateBounds" />
          </mxGeometry>
        </mxCell>
        <mxCell id="kjsFCcRXz8dB2E8ujbUS-37" value="&lt;b style=&quot;font-size: 15px;&quot;&gt;invoice_status&lt;/b&gt;" style="shape=partialRectangle;connectable=0;fillColor=none;top=0;left=0;bottom=0;right=0;align=left;spacingLeft=6;overflow=hidden;whiteSpace=wrap;html=1;fontSize=15;" parent="kjsFCcRXz8dB2E8ujbUS-35" vertex="1">
          <mxGeometry x="30" width="240" height="30" as="geometry">
            <mxRectangle width="240" height="30" as="alternateBounds" />
          </mxGeometry>
        </mxCell>
        <mxCell id="JNjkFObuWSihsPi3QTzy-208" value="items" style="shape=table;startSize=30;container=1;collapsible=1;childLayout=tableLayout;fixedRows=1;rowLines=0;fontStyle=1;align=center;resizeLast=1;html=1;fontSize=15;" parent="1" vertex="1">
          <mxGeometry x="-440.11" y="1770" width="250" height="120" as="geometry" />
        </mxCell>
        <mxCell id="JNjkFObuWSihsPi3QTzy-209" value="" style="shape=tableRow;horizontal=0;startSize=0;swimlaneHead=0;swimlaneBody=0;fillColor=none;collapsible=0;dropTarget=0;points=[[0,0.5],[1,0.5]];portConstraint=eastwest;top=0;left=0;right=0;bottom=1;fontSize=15;" parent="JNjkFObuWSihsPi3QTzy-208" vertex="1">
          <mxGeometry y="30" width="250" height="30" as="geometry" />
        </mxCell>
        <mxCell id="JNjkFObuWSihsPi3QTzy-210" value="PK" style="shape=partialRectangle;connectable=0;fillColor=none;top=0;left=0;bottom=0;right=0;fontStyle=1;overflow=hidden;whiteSpace=wrap;html=1;fontSize=15;" parent="JNjkFObuWSihsPi3QTzy-209" vertex="1">
          <mxGeometry width="30" height="30" as="geometry">
            <mxRectangle width="30" height="30" as="alternateBounds" />
          </mxGeometry>
        </mxCell>
        <mxCell id="JNjkFObuWSihsPi3QTzy-211" value="item_id" style="shape=partialRectangle;connectable=0;fillColor=none;top=0;left=0;bottom=0;right=0;align=left;spacingLeft=6;fontStyle=5;overflow=hidden;whiteSpace=wrap;html=1;fontSize=15;" parent="JNjkFObuWSihsPi3QTzy-209" vertex="1">
          <mxGeometry x="30" width="220" height="30" as="geometry">
            <mxRectangle width="220" height="30" as="alternateBounds" />
          </mxGeometry>
        </mxCell>
        <mxCell id="JNjkFObuWSihsPi3QTzy-212" value="" style="shape=tableRow;horizontal=0;startSize=0;swimlaneHead=0;swimlaneBody=0;fillColor=none;collapsible=0;dropTarget=0;points=[[0,0.5],[1,0.5]];portConstraint=eastwest;top=0;left=0;right=0;bottom=0;fontStyle=1;fontSize=15;" parent="JNjkFObuWSihsPi3QTzy-208" vertex="1">
          <mxGeometry y="60" width="250" height="30" as="geometry" />
        </mxCell>
        <mxCell id="JNjkFObuWSihsPi3QTzy-213" value="&lt;span style=&quot;font-size: 15px;&quot;&gt;U&lt;/span&gt;" style="shape=partialRectangle;connectable=0;fillColor=none;top=0;left=0;bottom=0;right=0;editable=1;overflow=hidden;whiteSpace=wrap;html=1;fontStyle=1;fontSize=15;" parent="JNjkFObuWSihsPi3QTzy-212" vertex="1">
          <mxGeometry width="30" height="30" as="geometry">
            <mxRectangle width="30" height="30" as="alternateBounds" />
          </mxGeometry>
        </mxCell>
        <mxCell id="JNjkFObuWSihsPi3QTzy-214" value="&lt;b style=&quot;font-size: 15px;&quot;&gt;item_name&lt;/b&gt;" style="shape=partialRectangle;connectable=0;fillColor=none;top=0;left=0;bottom=0;right=0;align=left;spacingLeft=6;overflow=hidden;whiteSpace=wrap;html=1;fontSize=15;" parent="JNjkFObuWSihsPi3QTzy-212" vertex="1">
          <mxGeometry x="30" width="220" height="30" as="geometry">
            <mxRectangle width="220" height="30" as="alternateBounds" />
          </mxGeometry>
        </mxCell>
        <mxCell id="JNjkFObuWSihsPi3QTzy-215" value="" style="shape=tableRow;horizontal=0;startSize=0;swimlaneHead=0;swimlaneBody=0;fillColor=none;collapsible=0;dropTarget=0;points=[[0,0.5],[1,0.5]];portConstraint=eastwest;top=0;left=0;right=0;bottom=0;fontSize=15;" parent="JNjkFObuWSihsPi3QTzy-208" vertex="1">
          <mxGeometry y="90" width="250" height="30" as="geometry" />
        </mxCell>
        <mxCell id="JNjkFObuWSihsPi3QTzy-216" value="" style="shape=partialRectangle;connectable=0;fillColor=none;top=0;left=0;bottom=0;right=0;editable=1;overflow=hidden;whiteSpace=wrap;html=1;fontSize=15;" parent="JNjkFObuWSihsPi3QTzy-215" vertex="1">
          <mxGeometry width="30" height="30" as="geometry">
            <mxRectangle width="30" height="30" as="alternateBounds" />
          </mxGeometry>
        </mxCell>
        <mxCell id="JNjkFObuWSihsPi3QTzy-217" value="&lt;b style=&quot;font-size: 15px;&quot;&gt;item_price&lt;/b&gt;" style="shape=partialRectangle;connectable=0;fillColor=none;top=0;left=0;bottom=0;right=0;align=left;spacingLeft=6;overflow=hidden;whiteSpace=wrap;html=1;fontSize=15;" parent="JNjkFObuWSihsPi3QTzy-215" vertex="1">
          <mxGeometry x="30" width="220" height="30" as="geometry">
            <mxRectangle width="220" height="30" as="alternateBounds" />
          </mxGeometry>
        </mxCell>
        <mxCell id="JNjkFObuWSihsPi3QTzy-247" value="invoice_items" style="shape=table;startSize=30;container=1;collapsible=1;childLayout=tableLayout;fixedRows=1;rowLines=0;fontStyle=1;align=center;resizeLast=1;html=1;whiteSpace=wrap;fontSize=15;" parent="1" vertex="1">
          <mxGeometry x="-440.11" y="1380" width="250" height="120" as="geometry" />
        </mxCell>
        <mxCell id="JNjkFObuWSihsPi3QTzy-248" value="" style="shape=tableRow;horizontal=0;startSize=0;swimlaneHead=0;swimlaneBody=0;fillColor=none;collapsible=0;dropTarget=0;points=[[0,0.5],[1,0.5]];portConstraint=eastwest;top=0;left=0;right=0;bottom=0;html=1;fontSize=15;" parent="JNjkFObuWSihsPi3QTzy-247" vertex="1">
          <mxGeometry y="30" width="250" height="30" as="geometry" />
        </mxCell>
        <mxCell id="JNjkFObuWSihsPi3QTzy-249" value="PK,FK1" style="shape=partialRectangle;connectable=0;fillColor=none;top=0;left=0;bottom=0;right=0;fontStyle=1;overflow=hidden;html=1;whiteSpace=wrap;fontSize=15;" parent="JNjkFObuWSihsPi3QTzy-248" vertex="1">
          <mxGeometry width="60" height="30" as="geometry">
            <mxRectangle width="60" height="30" as="alternateBounds" />
          </mxGeometry>
        </mxCell>
        <mxCell id="JNjkFObuWSihsPi3QTzy-250" value="invoice_id" style="shape=partialRectangle;connectable=0;fillColor=none;top=0;left=0;bottom=0;right=0;align=left;spacingLeft=6;fontStyle=5;overflow=hidden;html=1;whiteSpace=wrap;fontSize=15;" parent="JNjkFObuWSihsPi3QTzy-248" vertex="1">
          <mxGeometry x="60" width="190" height="30" as="geometry">
            <mxRectangle width="190" height="30" as="alternateBounds" />
          </mxGeometry>
        </mxCell>
        <mxCell id="JNjkFObuWSihsPi3QTzy-251" value="" style="shape=tableRow;horizontal=0;startSize=0;swimlaneHead=0;swimlaneBody=0;fillColor=none;collapsible=0;dropTarget=0;points=[[0,0.5],[1,0.5]];portConstraint=eastwest;top=0;left=0;right=0;bottom=1;html=1;fontSize=15;" parent="JNjkFObuWSihsPi3QTzy-247" vertex="1">
          <mxGeometry y="60" width="250" height="30" as="geometry" />
        </mxCell>
        <mxCell id="JNjkFObuWSihsPi3QTzy-252" value="PK,FK2" style="shape=partialRectangle;connectable=0;fillColor=none;top=0;left=0;bottom=0;right=0;fontStyle=1;overflow=hidden;html=1;whiteSpace=wrap;fontSize=15;" parent="JNjkFObuWSihsPi3QTzy-251" vertex="1">
          <mxGeometry width="60" height="30" as="geometry">
            <mxRectangle width="60" height="30" as="alternateBounds" />
          </mxGeometry>
        </mxCell>
        <mxCell id="JNjkFObuWSihsPi3QTzy-253" value="item_id" style="shape=partialRectangle;connectable=0;fillColor=none;top=0;left=0;bottom=0;right=0;align=left;spacingLeft=6;fontStyle=5;overflow=hidden;html=1;whiteSpace=wrap;fontSize=15;" parent="JNjkFObuWSihsPi3QTzy-251" vertex="1">
          <mxGeometry x="60" width="190" height="30" as="geometry">
            <mxRectangle width="190" height="30" as="alternateBounds" />
          </mxGeometry>
        </mxCell>
        <mxCell id="JNjkFObuWSihsPi3QTzy-254" value="" style="shape=tableRow;horizontal=0;startSize=0;swimlaneHead=0;swimlaneBody=0;fillColor=none;collapsible=0;dropTarget=0;points=[[0,0.5],[1,0.5]];portConstraint=eastwest;top=0;left=0;right=0;bottom=0;html=1;fontSize=15;" parent="JNjkFObuWSihsPi3QTzy-247" vertex="1">
          <mxGeometry y="90" width="250" height="30" as="geometry" />
        </mxCell>
        <mxCell id="JNjkFObuWSihsPi3QTzy-255" value="" style="shape=partialRectangle;connectable=0;fillColor=none;top=0;left=0;bottom=0;right=0;editable=1;overflow=hidden;html=1;whiteSpace=wrap;fontSize=15;" parent="JNjkFObuWSihsPi3QTzy-254" vertex="1">
          <mxGeometry width="60" height="30" as="geometry">
            <mxRectangle width="60" height="30" as="alternateBounds" />
          </mxGeometry>
        </mxCell>
        <mxCell id="JNjkFObuWSihsPi3QTzy-256" value="invoice_item_quantity" style="shape=partialRectangle;connectable=0;fillColor=none;top=0;left=0;bottom=0;right=0;align=left;spacingLeft=6;overflow=hidden;html=1;whiteSpace=wrap;fontStyle=1;fontSize=15;" parent="JNjkFObuWSihsPi3QTzy-254" vertex="1">
          <mxGeometry x="60" width="190" height="30" as="geometry">
            <mxRectangle width="190" height="30" as="alternateBounds" />
          </mxGeometry>
        </mxCell>
        <mxCell id="JNjkFObuWSihsPi3QTzy-260" style="edgeStyle=orthogonalEdgeStyle;rounded=0;orthogonalLoop=1;jettySize=auto;html=1;entryX=0;entryY=0.5;entryDx=0;entryDy=0;fontSize=15;strokeWidth=2;" parent="1" source="JNjkFObuWSihsPi3QTzy-251" target="JNjkFObuWSihsPi3QTzy-209" edge="1">
          <mxGeometry relative="1" as="geometry">
            <mxPoint x="-660.11" y="1815" as="targetPoint" />
            <Array as="points">
              <mxPoint x="-480" y="1455" />
              <mxPoint x="-480" y="1815" />
            </Array>
          </mxGeometry>
        </mxCell>
        <mxCell id="JNjkFObuWSihsPi3QTzy-261" style="edgeStyle=orthogonalEdgeStyle;rounded=0;orthogonalLoop=1;jettySize=auto;html=1;entryX=0;entryY=0.5;entryDx=0;entryDy=0;fontSize=15;strokeWidth=2;" parent="1" source="JNjkFObuWSihsPi3QTzy-248" target="JNjkFObuWSihsPi3QTzy-193" edge="1">
          <mxGeometry relative="1" as="geometry">
            <Array as="points">
              <mxPoint x="-160" y="1425" />
              <mxPoint x="-160" y="1295" />
            </Array>
          </mxGeometry>
        </mxCell>
        <mxCell id="kjsFCcRXz8dB2E8ujbUS-1" style="edgeStyle=orthogonalEdgeStyle;rounded=0;orthogonalLoop=1;jettySize=auto;html=1;entryX=1;entryY=0.5;entryDx=0;entryDy=0;fontSize=15;strokeWidth=2;" parent="1" source="JNjkFObuWSihsPi3QTzy-230" target="JNjkFObuWSihsPi3QTzy-127" edge="1">
          <mxGeometry relative="1" as="geometry" />
        </mxCell>
        <mxCell id="kjsFCcRXz8dB2E8ujbUS-5" style="edgeStyle=orthogonalEdgeStyle;rounded=0;orthogonalLoop=1;jettySize=auto;html=1;entryX=1;entryY=0.5;entryDx=0;entryDy=0;fontSize=15;strokeWidth=2;" parent="1" source="kjsFCcRXz8dB2E8ujbUS-2" target="JNjkFObuWSihsPi3QTzy-178" edge="1">
          <mxGeometry relative="1" as="geometry" />
        </mxCell>
        <mxCell id="kjsFCcRXz8dB2E8ujbUS-22" value="invoice_status_lookup" style="shape=table;startSize=30;container=1;collapsible=1;childLayout=tableLayout;fixedRows=1;rowLines=0;fontStyle=1;align=center;resizeLast=1;html=1;fontSize=15;" parent="1" vertex="1">
          <mxGeometry x="329.89" y="1330" width="180" height="60" as="geometry" />
        </mxCell>
        <mxCell id="kjsFCcRXz8dB2E8ujbUS-23" value="" style="shape=tableRow;horizontal=0;startSize=0;swimlaneHead=0;swimlaneBody=0;fillColor=none;collapsible=0;dropTarget=0;points=[[0,0.5],[1,0.5]];portConstraint=eastwest;top=0;left=0;right=0;bottom=1;fontSize=15;" parent="kjsFCcRXz8dB2E8ujbUS-22" vertex="1">
          <mxGeometry y="30" width="180" height="30" as="geometry" />
        </mxCell>
        <mxCell id="kjsFCcRXz8dB2E8ujbUS-24" value="PK" style="shape=partialRectangle;connectable=0;fillColor=none;top=0;left=0;bottom=0;right=0;fontStyle=1;overflow=hidden;whiteSpace=wrap;html=1;fontSize=15;" parent="kjsFCcRXz8dB2E8ujbUS-23" vertex="1">
          <mxGeometry width="30" height="30" as="geometry">
            <mxRectangle width="30" height="30" as="alternateBounds" />
          </mxGeometry>
        </mxCell>
        <mxCell id="kjsFCcRXz8dB2E8ujbUS-25" value="invoice_status" style="shape=partialRectangle;connectable=0;fillColor=none;top=0;left=0;bottom=0;right=0;align=left;spacingLeft=6;fontStyle=5;overflow=hidden;whiteSpace=wrap;html=1;fontSize=15;" parent="kjsFCcRXz8dB2E8ujbUS-23" vertex="1">
          <mxGeometry x="30" width="150" height="30" as="geometry">
            <mxRectangle width="150" height="30" as="alternateBounds" />
          </mxGeometry>
        </mxCell>
        <mxCell id="kjsFCcRXz8dB2E8ujbUS-38" style="edgeStyle=orthogonalEdgeStyle;rounded=0;orthogonalLoop=1;jettySize=auto;html=1;entryX=0;entryY=0.5;entryDx=0;entryDy=0;fontSize=15;strokeWidth=2;" parent="1" source="kjsFCcRXz8dB2E8ujbUS-35" target="kjsFCcRXz8dB2E8ujbUS-23" edge="1">
          <mxGeometry relative="1" as="geometry" />
        </mxCell>
        <mxCell id="kjsFCcRXz8dB2E8ujbUS-45" style="edgeStyle=orthogonalEdgeStyle;rounded=0;orthogonalLoop=1;jettySize=auto;html=1;entryX=1;entryY=0.5;entryDx=0;entryDy=0;fontSize=17;strokeWidth=2;" parent="1" source="kjsFCcRXz8dB2E8ujbUS-42" target="JNjkFObuWSihsPi3QTzy-193" edge="1">
          <mxGeometry relative="1" as="geometry" />
        </mxCell>
        <mxCell id="kjsFCcRXz8dB2E8ujbUS-62" style="edgeStyle=orthogonalEdgeStyle;rounded=0;orthogonalLoop=1;jettySize=auto;html=1;entryX=1;entryY=0.733;entryDx=0;entryDy=0;entryPerimeter=0;fontSize=15;strokeWidth=2;" parent="1" source="kjsFCcRXz8dB2E8ujbUS-59" target="JNjkFObuWSihsPi3QTzy-127" edge="1">
          <mxGeometry relative="1" as="geometry">
            <Array as="points">
              <mxPoint x="190" y="1645" />
              <mxPoint x="190" y="1522" />
            </Array>
          </mxGeometry>
        </mxCell>
        <mxCell id="kjsFCcRXz8dB2E8ujbUS-65" style="edgeStyle=orthogonalEdgeStyle;rounded=0;orthogonalLoop=1;jettySize=auto;html=1;entryX=1;entryY=0.5;entryDx=0;entryDy=0;fontSize=15;strokeWidth=2;" parent="1" target="JNjkFObuWSihsPi3QTzy-67" edge="1">
          <mxGeometry relative="1" as="geometry">
            <Array as="points">
              <mxPoint x="732" y="1845" />
              <mxPoint x="770" y="1845" />
              <mxPoint x="770" y="1465" />
            </Array>
            <mxPoint x="730" y="1845" as="sourcePoint" />
          </mxGeometry>
        </mxCell>
        <mxCell id="kjsFCcRXz8dB2E8ujbUS-69" style="edgeStyle=orthogonalEdgeStyle;rounded=0;orthogonalLoop=1;jettySize=auto;html=1;entryX=0;entryY=0.5;entryDx=0;entryDy=0;fontSize=15;strokeWidth=2;" parent="1" source="kjsFCcRXz8dB2E8ujbUS-66" target="JNjkFObuWSihsPi3QTzy-89" edge="1">
          <mxGeometry relative="1" as="geometry">
            <Array as="points">
              <mxPoint x="500" y="1675" />
              <mxPoint x="500" y="1785" />
            </Array>
          </mxGeometry>
        </mxCell>
        <mxCell id="kjsFCcRXz8dB2E8ujbUS-75" style="edgeStyle=orthogonalEdgeStyle;rounded=0;orthogonalLoop=1;jettySize=auto;html=1;exitX=0;exitY=0.5;exitDx=0;exitDy=0;fontSize=15;strokeWidth=2;" parent="1" source="kjsFCcRXz8dB2E8ujbUS-72" edge="1">
          <mxGeometry relative="1" as="geometry">
            <mxPoint x="259.89" y="1915" as="targetPoint" />
            <Array as="points">
              <mxPoint x="230" y="1705" />
              <mxPoint x="230" y="1915" />
            </Array>
          </mxGeometry>
        </mxCell>
        <mxCell id="EBd7Esg5nbANBsj6Xzd4-14" value="guest_payment_methods" style="shape=table;startSize=30;container=1;collapsible=1;childLayout=tableLayout;fixedRows=1;rowLines=0;fontStyle=1;align=center;resizeLast=1;html=1;whiteSpace=wrap;fontSize=15;" parent="1" vertex="1">
          <mxGeometry x="-70" y="1890" width="250" height="90" as="geometry" />
        </mxCell>
        <mxCell id="EBd7Esg5nbANBsj6Xzd4-15" value="" style="shape=tableRow;horizontal=0;startSize=0;swimlaneHead=0;swimlaneBody=0;fillColor=none;collapsible=0;dropTarget=0;points=[[0,0.5],[1,0.5]];portConstraint=eastwest;top=0;left=0;right=0;bottom=0;html=1;fontSize=15;" parent="EBd7Esg5nbANBsj6Xzd4-14" vertex="1">
          <mxGeometry y="30" width="250" height="30" as="geometry" />
        </mxCell>
        <mxCell id="EBd7Esg5nbANBsj6Xzd4-16" value="PK,FK1" style="shape=partialRectangle;connectable=0;fillColor=none;top=0;left=0;bottom=0;right=0;fontStyle=1;overflow=hidden;html=1;whiteSpace=wrap;fontSize=15;" parent="EBd7Esg5nbANBsj6Xzd4-15" vertex="1">
          <mxGeometry width="60" height="30" as="geometry">
            <mxRectangle width="60" height="30" as="alternateBounds" />
          </mxGeometry>
        </mxCell>
        <mxCell id="EBd7Esg5nbANBsj6Xzd4-17" value="guest_id" style="shape=partialRectangle;connectable=0;fillColor=none;top=0;left=0;bottom=0;right=0;align=left;spacingLeft=6;fontStyle=5;overflow=hidden;html=1;whiteSpace=wrap;fontSize=15;" parent="EBd7Esg5nbANBsj6Xzd4-15" vertex="1">
          <mxGeometry x="60" width="190" height="30" as="geometry">
            <mxRectangle width="190" height="30" as="alternateBounds" />
          </mxGeometry>
        </mxCell>
        <mxCell id="EBd7Esg5nbANBsj6Xzd4-18" value="" style="shape=tableRow;horizontal=0;startSize=0;swimlaneHead=0;swimlaneBody=0;fillColor=none;collapsible=0;dropTarget=0;points=[[0,0.5],[1,0.5]];portConstraint=eastwest;top=0;left=0;right=0;bottom=1;html=1;fontSize=15;" parent="EBd7Esg5nbANBsj6Xzd4-14" vertex="1">
          <mxGeometry y="60" width="250" height="30" as="geometry" />
        </mxCell>
        <mxCell id="EBd7Esg5nbANBsj6Xzd4-19" value="PK,FK2" style="shape=partialRectangle;connectable=0;fillColor=none;top=0;left=0;bottom=0;right=0;fontStyle=1;overflow=hidden;html=1;whiteSpace=wrap;fontSize=15;" parent="EBd7Esg5nbANBsj6Xzd4-18" vertex="1">
          <mxGeometry width="60" height="30" as="geometry">
            <mxRectangle width="60" height="30" as="alternateBounds" />
          </mxGeometry>
        </mxCell>
        <mxCell id="EBd7Esg5nbANBsj6Xzd4-20" value="payment_method_type" style="shape=partialRectangle;connectable=0;fillColor=none;top=0;left=0;bottom=0;right=0;align=left;spacingLeft=6;fontStyle=5;overflow=hidden;html=1;whiteSpace=wrap;fontSize=15;" parent="EBd7Esg5nbANBsj6Xzd4-18" vertex="1">
          <mxGeometry x="60" width="190" height="30" as="geometry">
            <mxRectangle width="190" height="30" as="alternateBounds" />
          </mxGeometry>
        </mxCell>
        <mxCell id="EBd7Esg5nbANBsj6Xzd4-27" style="edgeStyle=orthogonalEdgeStyle;rounded=0;orthogonalLoop=1;jettySize=auto;html=1;entryX=0;entryY=0.5;entryDx=0;entryDy=0;fontSize=15;strokeWidth=2;" parent="1" source="EBd7Esg5nbANBsj6Xzd4-15" target="JNjkFObuWSihsPi3QTzy-127" edge="1">
          <mxGeometry relative="1" as="geometry" />
        </mxCell>
        <mxCell id="EBd7Esg5nbANBsj6Xzd4-28" style="edgeStyle=orthogonalEdgeStyle;rounded=0;orthogonalLoop=1;jettySize=auto;html=1;entryX=1;entryY=0.5;entryDx=0;entryDy=0;fontSize=15;strokeWidth=2;" parent="1" source="EBd7Esg5nbANBsj6Xzd4-18" target="JNjkFObuWSihsPi3QTzy-178" edge="1">
          <mxGeometry relative="1" as="geometry" />
        </mxCell>
        <mxCell id="EBd7Esg5nbANBsj6Xzd4-46" value="room_status_lookup" style="shape=table;startSize=30;container=1;collapsible=1;childLayout=tableLayout;fixedRows=1;rowLines=0;fontStyle=1;align=center;resizeLast=1;html=1;fontSize=15;" parent="1" vertex="1">
          <mxGeometry x="820" y="1900" width="180" height="60" as="geometry" />
        </mxCell>
        <mxCell id="EBd7Esg5nbANBsj6Xzd4-47" value="" style="shape=tableRow;horizontal=0;startSize=0;swimlaneHead=0;swimlaneBody=0;fillColor=none;collapsible=0;dropTarget=0;points=[[0,0.5],[1,0.5]];portConstraint=eastwest;top=0;left=0;right=0;bottom=1;fontSize=15;" parent="EBd7Esg5nbANBsj6Xzd4-46" vertex="1">
          <mxGeometry y="30" width="180" height="30" as="geometry" />
        </mxCell>
        <mxCell id="EBd7Esg5nbANBsj6Xzd4-48" value="PK" style="shape=partialRectangle;connectable=0;fillColor=none;top=0;left=0;bottom=0;right=0;fontStyle=1;overflow=hidden;whiteSpace=wrap;html=1;fontSize=15;" parent="EBd7Esg5nbANBsj6Xzd4-47" vertex="1">
          <mxGeometry width="30" height="30" as="geometry">
            <mxRectangle width="30" height="30" as="alternateBounds" />
          </mxGeometry>
        </mxCell>
        <mxCell id="EBd7Esg5nbANBsj6Xzd4-49" value="room_status" style="shape=partialRectangle;connectable=0;fillColor=none;top=0;left=0;bottom=0;right=0;align=left;spacingLeft=6;fontStyle=5;overflow=hidden;whiteSpace=wrap;html=1;fontSize=15;" parent="EBd7Esg5nbANBsj6Xzd4-47" vertex="1">
          <mxGeometry x="30" width="150" height="30" as="geometry">
            <mxRectangle width="150" height="30" as="alternateBounds" />
          </mxGeometry>
        </mxCell>
        <mxCell id="EBd7Esg5nbANBsj6Xzd4-59" style="edgeStyle=orthogonalEdgeStyle;rounded=0;orthogonalLoop=1;jettySize=auto;html=1;exitX=0;exitY=0.5;exitDx=0;exitDy=0;entryX=-0.011;entryY=0.18;entryDx=0;entryDy=0;entryPerimeter=0;fontSize=15;strokeWidth=2;" parent="1" source="JNjkFObuWSihsPi3QTzy-61" target="JNjkFObuWSihsPi3QTzy-5" edge="1">
          <mxGeometry relative="1" as="geometry">
            <Array as="points">
              <mxPoint x="790" y="1454" />
              <mxPoint x="790" y="1785" />
            </Array>
            <mxPoint x="800" y="1420" as="sourcePoint" />
            <mxPoint x="790" y="1785" as="targetPoint" />
          </mxGeometry>
        </mxCell>
        <mxCell id="ag9v_zLuEg-tw-9aR-u8-3" style="edgeStyle=orthogonalEdgeStyle;rounded=0;orthogonalLoop=1;jettySize=auto;html=1;entryX=0;entryY=0.5;entryDx=0;entryDy=0;strokeWidth=2;" parent="1" source="JNjkFObuWSihsPi3QTzy-101" target="JNjkFObuWSihsPi3QTzy-31" edge="1">
          <mxGeometry relative="1" as="geometry">
            <Array as="points">
              <mxPoint x="760" y="1875" />
              <mxPoint x="760" y="1304" />
            </Array>
          </mxGeometry>
        </mxCell>
        <mxCell id="ag9v_zLuEg-tw-9aR-u8-4" style="edgeStyle=orthogonalEdgeStyle;rounded=0;orthogonalLoop=1;jettySize=auto;html=1;entryX=0;entryY=0.5;entryDx=0;entryDy=0;strokeWidth=2;" parent="1" source="GhYaBqCUdXHmLidMKI3i-1" target="EBd7Esg5nbANBsj6Xzd4-47" edge="1">
          <mxGeometry relative="1" as="geometry" />
        </mxCell>
      </root>
    </mxGraphModel>
  </diagram>
  <diagram id="ykrwTrH68vebPcjCzFMq" name="Page-2">
    <mxGraphModel dx="1750" dy="1195" grid="1" gridSize="10" guides="1" tooltips="1" connect="1" arrows="1" fold="1" page="1" pageScale="1" pageWidth="850" pageHeight="1100" math="0" shadow="0">
      <root>
        <mxCell id="0" />
        <mxCell id="1" parent="0" />
        <mxCell id="_MiyGDxBwrssd4ob-zck-1" style="edgeStyle=orthogonalEdgeStyle;rounded=0;orthogonalLoop=1;jettySize=auto;html=1;entryX=0;entryY=0.75;entryDx=0;entryDy=0;exitX=0;exitY=0.75;exitDx=0;exitDy=0;endArrow=ERzeroToOne;endFill=0;startArrow=ERmandOne;startFill=0;endSize=10;startSize=10;" parent="1" source="_MiyGDxBwrssd4ob-zck-3" target="_MiyGDxBwrssd4ob-zck-23" edge="1">
          <mxGeometry relative="1" as="geometry">
            <Array as="points">
              <mxPoint x="620" y="968" />
              <mxPoint x="620" y="323" />
            </Array>
            <mxPoint x="742.6299999999998" y="1028.2099999999998" as="sourcePoint" />
            <mxPoint x="754.7799999999999" y="320" as="targetPoint" />
          </mxGeometry>
        </mxCell>
        <mxCell id="_MiyGDxBwrssd4ob-zck-2" value="booking" style="swimlane;childLayout=stackLayout;horizontal=1;startSize=50;horizontalStack=0;rounded=1;fontSize=14;fontStyle=0;strokeWidth=2;resizeParent=0;resizeLast=1;shadow=0;dashed=0;align=center;arcSize=4;whiteSpace=wrap;html=1;" parent="1" vertex="1">
          <mxGeometry x="769.89" y="850" width="190" height="140" as="geometry" />
        </mxCell>
        <mxCell id="_MiyGDxBwrssd4ob-zck-3" value="+booking number [R]&lt;br&gt;+start date [R]&lt;br&gt;+end date [R]&lt;br&gt;&lt;br&gt;&lt;div&gt;&lt;br&gt;&lt;/div&gt;" style="align=left;strokeColor=none;fillColor=none;spacingLeft=4;fontSize=12;verticalAlign=top;resizable=0;rotatable=0;part=1;html=1;" parent="_MiyGDxBwrssd4ob-zck-2" vertex="1">
          <mxGeometry y="50" width="190" height="90" as="geometry" />
        </mxCell>
        <mxCell id="_MiyGDxBwrssd4ob-zck-4" value="guest" style="swimlane;childLayout=stackLayout;horizontal=1;startSize=50;horizontalStack=0;rounded=1;fontSize=15;fontStyle=0;strokeWidth=2;resizeParent=0;resizeLast=1;shadow=0;dashed=0;align=center;arcSize=4;whiteSpace=wrap;html=1;" parent="1" vertex="1">
          <mxGeometry x="650" y="430" width="160" height="220" as="geometry" />
        </mxCell>
        <mxCell id="_MiyGDxBwrssd4ob-zck-5" value="+name [RC]&lt;br style=&quot;font-size: 15px;&quot;&gt;+DOB [R]&lt;br style=&quot;font-size: 15px;&quot;&gt;+email [RU]&lt;br style=&quot;font-size: 15px;&quot;&gt;+phone number [R]&lt;br style=&quot;font-size: 15px;&quot;&gt;+address [R]&amp;nbsp;&lt;br style=&quot;font-size: 15px;&quot;&gt;+city [R]&lt;br style=&quot;font-size: 15px;&quot;&gt;+country [R]" style="align=left;strokeColor=none;fillColor=none;spacingLeft=4;fontSize=15;verticalAlign=top;resizable=0;rotatable=0;part=1;html=1;" parent="_MiyGDxBwrssd4ob-zck-4" vertex="1">
          <mxGeometry y="50" width="160" height="170" as="geometry" />
        </mxCell>
        <mxCell id="_MiyGDxBwrssd4ob-zck-6" style="edgeStyle=orthogonalEdgeStyle;rounded=0;orthogonalLoop=1;jettySize=auto;html=1;entryX=0;entryY=0.5;entryDx=0;entryDy=0;endSize=10;startSize=10;strokeWidth=1;endArrow=ERzeroToMany;endFill=0;startArrow=ERmandOne;startFill=0;exitX=0;exitY=0.5;exitDx=0;exitDy=0;" parent="1" source="_MiyGDxBwrssd4ob-zck-9" target="_MiyGDxBwrssd4ob-zck-11" edge="1">
          <mxGeometry relative="1" as="geometry">
            <Array as="points">
              <mxPoint x="900" y="728" />
              <mxPoint x="900" y="450" />
            </Array>
          </mxGeometry>
        </mxCell>
        <mxCell id="_MiyGDxBwrssd4ob-zck-7" value="manages/is managed by" style="edgeLabel;html=1;align=center;verticalAlign=middle;resizable=0;points=[];fontSize=15;" parent="_MiyGDxBwrssd4ob-zck-6" vertex="1" connectable="0">
          <mxGeometry x="-0.0667" relative="1" as="geometry">
            <mxPoint y="-13" as="offset" />
          </mxGeometry>
        </mxCell>
        <mxCell id="_MiyGDxBwrssd4ob-zck-8" value="staff" style="swimlane;childLayout=stackLayout;horizontal=1;startSize=50;horizontalStack=0;rounded=1;fontSize=15;fontStyle=0;strokeWidth=2;resizeParent=0;resizeLast=1;shadow=0;dashed=0;align=center;arcSize=4;whiteSpace=wrap;html=1;" parent="1" vertex="1">
          <mxGeometry x="950" y="605" width="160" height="195" as="geometry" />
        </mxCell>
        <mxCell id="_MiyGDxBwrssd4ob-zck-9" value="+name [RC]&lt;br style=&quot;font-size: 15px;&quot;&gt;+hiredate [R]&lt;br&gt;+DOB [R]&lt;br&gt;+email[RU]&lt;br&gt;+phone number [R]&lt;br style=&quot;font-size: 15px;&quot;&gt;+gender[R]&lt;br style=&quot;font-size: 15px;&quot;&gt;&lt;div style=&quot;font-size: 15px;&quot;&gt;&lt;br style=&quot;font-size: 15px;&quot;&gt;&lt;/div&gt;" style="align=left;strokeColor=none;fillColor=none;spacingLeft=4;fontSize=15;verticalAlign=top;resizable=0;rotatable=0;part=1;html=1;" parent="_MiyGDxBwrssd4ob-zck-8" vertex="1">
          <mxGeometry y="50" width="160" height="145" as="geometry" />
        </mxCell>
        <mxCell id="_MiyGDxBwrssd4ob-zck-10" value="room" style="swimlane;childLayout=stackLayout;horizontal=1;startSize=50;horizontalStack=0;rounded=1;fontSize=15;fontStyle=0;strokeWidth=2;resizeParent=0;resizeLast=1;shadow=0;dashed=0;align=center;arcSize=4;whiteSpace=wrap;html=1;" parent="1" vertex="1">
          <mxGeometry x="970" y="330" width="160" height="190" as="geometry" />
        </mxCell>
        <mxCell id="_MiyGDxBwrssd4ob-zck-11" value="+room number [R]&lt;br style=&quot;font-size: 15px;&quot;&gt;+assigned staff [R]&lt;br style=&quot;font-size: 15px;&quot;&gt;+clean date&amp;nbsp;&lt;br style=&quot;font-size: 15px;&quot;&gt;+checkin date&lt;br style=&quot;font-size: 15px;&quot;&gt;+checout date&lt;br style=&quot;font-size: 15px;&quot;&gt;+status [RMV]&lt;br style=&quot;font-size: 15px;&quot;&gt;&lt;div style=&quot;font-size: 15px;&quot;&gt;&lt;br style=&quot;font-size: 15px;&quot;&gt;&lt;/div&gt;" style="align=left;strokeColor=none;fillColor=none;spacingLeft=4;fontSize=15;verticalAlign=top;resizable=0;rotatable=0;part=1;html=1;" parent="_MiyGDxBwrssd4ob-zck-10" vertex="1">
          <mxGeometry y="50" width="160" height="140" as="geometry" />
        </mxCell>
        <mxCell id="_MiyGDxBwrssd4ob-zck-12" value="invoice" style="swimlane;childLayout=stackLayout;horizontal=1;startSize=50;horizontalStack=0;rounded=1;fontSize=15;fontStyle=0;strokeWidth=2;resizeParent=0;resizeLast=1;shadow=0;dashed=0;align=center;arcSize=4;whiteSpace=wrap;html=1;" parent="1" vertex="1">
          <mxGeometry x="240" y="390" width="170" height="150" as="geometry" />
        </mxCell>
        <mxCell id="_MiyGDxBwrssd4ob-zck-13" value="&amp;nbsp;&lt;br style=&quot;font-size: 15px;&quot;&gt;+payment due date&amp;nbsp; [R]&lt;br style=&quot;font-size: 15px;&quot;&gt;+status [RMV]" style="align=left;strokeColor=none;fillColor=none;spacingLeft=4;fontSize=15;verticalAlign=top;resizable=0;rotatable=0;part=1;html=1;" parent="_MiyGDxBwrssd4ob-zck-12" vertex="1">
          <mxGeometry y="50" width="170" height="100" as="geometry" />
        </mxCell>
        <mxCell id="_MiyGDxBwrssd4ob-zck-14" value="&lt;font style=&quot;font-size: 15px;&quot;&gt;room type&lt;/font&gt;" style="swimlane;childLayout=stackLayout;horizontal=1;startSize=50;horizontalStack=0;rounded=1;fontSize=14;fontStyle=0;strokeWidth=2;resizeParent=0;resizeLast=1;shadow=0;dashed=0;align=center;arcSize=4;whiteSpace=wrap;html=1;" parent="1" vertex="1">
          <mxGeometry x="1230" y="210" width="180" height="160" as="geometry" />
        </mxCell>
        <mxCell id="_MiyGDxBwrssd4ob-zck-15" value="+room type [R]&lt;br style=&quot;font-size: 15px;&quot;&gt;+price [R]&lt;br style=&quot;font-size: 15px;&quot;&gt;+maximum occupany [R]&lt;br style=&quot;font-size: 15px;&quot;&gt;+description&lt;div style=&quot;font-size: 15px;&quot;&gt;&lt;br style=&quot;font-size: 15px;&quot;&gt;&lt;/div&gt;" style="align=left;strokeColor=none;fillColor=none;spacingLeft=4;fontSize=15;verticalAlign=top;resizable=0;rotatable=0;part=1;html=1;" parent="_MiyGDxBwrssd4ob-zck-14" vertex="1">
          <mxGeometry y="50" width="180" height="110" as="geometry" />
        </mxCell>
        <mxCell id="_MiyGDxBwrssd4ob-zck-16" value="payment method" style="swimlane;childLayout=stackLayout;horizontal=1;startSize=50;horizontalStack=0;rounded=1;fontSize=15;fontStyle=0;strokeWidth=2;resizeParent=0;resizeLast=1;shadow=0;dashed=0;align=center;arcSize=4;whiteSpace=wrap;html=1;" parent="1" vertex="1">
          <mxGeometry x="429.89" y="700" width="160" height="130" as="geometry" />
        </mxCell>
        <mxCell id="_MiyGDxBwrssd4ob-zck-17" value="+name of payment [R]" style="align=left;strokeColor=none;fillColor=none;spacingLeft=4;fontSize=15;verticalAlign=top;resizable=0;rotatable=0;part=1;html=1;" parent="_MiyGDxBwrssd4ob-zck-16" vertex="1">
          <mxGeometry y="50" width="160" height="80" as="geometry" />
        </mxCell>
        <mxCell id="_MiyGDxBwrssd4ob-zck-18" value="role" style="swimlane;childLayout=stackLayout;horizontal=1;startSize=50;horizontalStack=0;rounded=1;fontSize=15;fontStyle=0;strokeWidth=2;resizeParent=0;resizeLast=1;shadow=0;dashed=0;align=center;arcSize=4;whiteSpace=wrap;html=1;" parent="1" vertex="1">
          <mxGeometry x="1230" y="690" width="160" height="160" as="geometry" />
        </mxCell>
        <mxCell id="_MiyGDxBwrssd4ob-zck-19" value="+role title [R]&lt;br style=&quot;font-size: 15px;&quot;&gt;+role description&lt;div style=&quot;font-size: 15px;&quot;&gt;&lt;br style=&quot;font-size: 15px;&quot;&gt;&lt;/div&gt;" style="align=left;strokeColor=none;fillColor=none;spacingLeft=4;fontSize=15;verticalAlign=top;resizable=0;rotatable=0;part=1;html=1;" parent="_MiyGDxBwrssd4ob-zck-18" vertex="1">
          <mxGeometry y="50" width="160" height="110" as="geometry" />
        </mxCell>
        <mxCell id="_MiyGDxBwrssd4ob-zck-20" value="department" style="swimlane;childLayout=stackLayout;horizontal=1;startSize=50;horizontalStack=0;rounded=1;fontSize=15;fontStyle=0;strokeWidth=2;resizeParent=0;resizeLast=1;shadow=0;dashed=0;align=center;arcSize=4;whiteSpace=wrap;html=1;" parent="1" vertex="1">
          <mxGeometry x="1230" y="450" width="160" height="100" as="geometry" />
        </mxCell>
        <mxCell id="_MiyGDxBwrssd4ob-zck-21" value="+department name [R]&amp;nbsp;&lt;br style=&quot;font-size: 15px;&quot;&gt;&lt;br style=&quot;font-size: 15px;&quot;&gt;&lt;div style=&quot;font-size: 15px;&quot;&gt;&lt;br style=&quot;font-size: 15px;&quot;&gt;&lt;/div&gt;" style="align=left;strokeColor=none;fillColor=none;spacingLeft=4;fontSize=15;verticalAlign=top;resizable=0;rotatable=0;part=1;html=1;" parent="_MiyGDxBwrssd4ob-zck-20" vertex="1">
          <mxGeometry y="50" width="160" height="50" as="geometry" />
        </mxCell>
        <mxCell id="_MiyGDxBwrssd4ob-zck-22" value="guest rating" style="swimlane;childLayout=stackLayout;horizontal=1;startSize=50;horizontalStack=0;rounded=1;fontSize=15;fontStyle=0;strokeWidth=2;resizeParent=0;resizeLast=1;shadow=0;dashed=0;align=center;arcSize=4;whiteSpace=wrap;html=1;" parent="1" vertex="1">
          <mxGeometry x="784.89" y="220" width="160" height="120" as="geometry" />
        </mxCell>
        <mxCell id="_MiyGDxBwrssd4ob-zck-23" value="+rating value&amp;nbsp;&lt;br style=&quot;font-size: 15px;&quot;&gt;+comment&amp;nbsp;&lt;br style=&quot;font-size: 15px;&quot;&gt;+rating date&lt;br style=&quot;font-size: 15px;&quot;&gt;&lt;div style=&quot;font-size: 15px;&quot;&gt;&lt;br style=&quot;font-size: 15px;&quot;&gt;&lt;/div&gt;" style="align=left;strokeColor=none;fillColor=none;spacingLeft=4;fontSize=15;verticalAlign=top;resizable=0;rotatable=0;part=1;html=1;" parent="_MiyGDxBwrssd4ob-zck-22" vertex="1">
          <mxGeometry y="50" width="160" height="70" as="geometry" />
        </mxCell>
        <mxCell id="_MiyGDxBwrssd4ob-zck-24" style="edgeStyle=orthogonalEdgeStyle;rounded=0;orthogonalLoop=1;jettySize=auto;html=1;entryX=1.011;entryY=0.413;entryDx=0;entryDy=0;elbow=vertical;endArrow=ERmany;endFill=0;startArrow=ERmandOne;startFill=0;endSize=10;startSize=10;strokeWidth=1;entryPerimeter=0;" parent="1" source="_MiyGDxBwrssd4ob-zck-15" target="_MiyGDxBwrssd4ob-zck-11" edge="1">
          <mxGeometry relative="1" as="geometry">
            <Array as="points">
              <mxPoint x="1170" y="315" />
              <mxPoint x="1170" y="438" />
            </Array>
          </mxGeometry>
        </mxCell>
        <mxCell id="_MiyGDxBwrssd4ob-zck-25" value="belongs to/has" style="edgeLabel;html=1;align=center;verticalAlign=middle;resizable=0;points=[];fontSize=15;" parent="_MiyGDxBwrssd4ob-zck-24" vertex="1" connectable="0">
          <mxGeometry x="0.0655" relative="1" as="geometry">
            <mxPoint x="7" as="offset" />
          </mxGeometry>
        </mxCell>
        <mxCell id="_MiyGDxBwrssd4ob-zck-26" style="edgeStyle=orthogonalEdgeStyle;rounded=0;orthogonalLoop=1;jettySize=auto;html=1;endArrow=ERmandOne;endFill=0;startArrow=ERoneToMany;startFill=0;exitX=1.009;exitY=0.319;exitDx=0;exitDy=0;exitPerimeter=0;strokeWidth=1;endSize=10;startSize=10;entryX=0;entryY=0.5;entryDx=0;entryDy=0;" parent="1" source="_MiyGDxBwrssd4ob-zck-9" target="_MiyGDxBwrssd4ob-zck-21" edge="1">
          <mxGeometry relative="1" as="geometry" />
        </mxCell>
        <mxCell id="_MiyGDxBwrssd4ob-zck-27" value="belongs to/has" style="edgeLabel;html=1;align=center;verticalAlign=middle;resizable=0;points=[];fontSize=15;" parent="_MiyGDxBwrssd4ob-zck-26" vertex="1" connectable="0">
          <mxGeometry x="-0.103" y="29" relative="1" as="geometry">
            <mxPoint x="29" y="-41" as="offset" />
          </mxGeometry>
        </mxCell>
        <mxCell id="_MiyGDxBwrssd4ob-zck-28" style="edgeStyle=orthogonalEdgeStyle;rounded=0;orthogonalLoop=1;jettySize=auto;html=1;endArrow=ERmandOne;endFill=0;startArrow=ERoneToMany;startFill=0;endSize=10;startSize=10;strokeWidth=1;entryX=0;entryY=0.5;entryDx=0;entryDy=0;" parent="1" source="_MiyGDxBwrssd4ob-zck-9" target="_MiyGDxBwrssd4ob-zck-19" edge="1">
          <mxGeometry relative="1" as="geometry">
            <mxPoint x="1210" y="800" as="targetPoint" />
            <Array as="points">
              <mxPoint x="1150" y="720" />
              <mxPoint x="1150" y="795" />
            </Array>
          </mxGeometry>
        </mxCell>
        <mxCell id="_MiyGDxBwrssd4ob-zck-29" value="has/is assigned to" style="edgeLabel;html=1;align=center;verticalAlign=middle;resizable=0;points=[];fontSize=15;" parent="_MiyGDxBwrssd4ob-zck-28" vertex="1" connectable="0">
          <mxGeometry x="-0.0279" y="-3" relative="1" as="geometry">
            <mxPoint x="13" y="-10" as="offset" />
          </mxGeometry>
        </mxCell>
        <mxCell id="_MiyGDxBwrssd4ob-zck-30" style="edgeStyle=orthogonalEdgeStyle;rounded=0;orthogonalLoop=1;jettySize=auto;html=1;entryX=0.5;entryY=0;entryDx=0;entryDy=0;endArrow=ERmandOne;endFill=0;startArrow=ERmandOne;startFill=0;endSize=10;startSize=10;strokeWidth=1;" parent="1" source="_MiyGDxBwrssd4ob-zck-23" target="_MiyGDxBwrssd4ob-zck-4" edge="1">
          <mxGeometry relative="1" as="geometry" />
        </mxCell>
        <mxCell id="_MiyGDxBwrssd4ob-zck-31" value="gives/is given by" style="edgeLabel;html=1;align=center;verticalAlign=middle;resizable=0;points=[];fontSize=15;" parent="_MiyGDxBwrssd4ob-zck-30" vertex="1" connectable="0">
          <mxGeometry x="-0.0058" y="4" relative="1" as="geometry">
            <mxPoint x="-63" y="11" as="offset" />
          </mxGeometry>
        </mxCell>
        <mxCell id="_MiyGDxBwrssd4ob-zck-32" style="edgeStyle=orthogonalEdgeStyle;rounded=0;orthogonalLoop=1;jettySize=auto;html=1;entryX=0;entryY=0.25;entryDx=0;entryDy=0;endSize=10;startSize=10;strokeWidth=1;endArrow=ERoneToMany;endFill=0;startArrow=ERmandOne;startFill=0;" parent="1" source="_MiyGDxBwrssd4ob-zck-5" target="_MiyGDxBwrssd4ob-zck-3" edge="1">
          <mxGeometry relative="1" as="geometry" />
        </mxCell>
        <mxCell id="_MiyGDxBwrssd4ob-zck-33" value="books/is booked by" style="edgeLabel;html=1;align=center;verticalAlign=middle;resizable=0;points=[];fontSize=15;" parent="_MiyGDxBwrssd4ob-zck-32" vertex="1" connectable="0">
          <mxGeometry x="-0.4696" y="-6" relative="1" as="geometry">
            <mxPoint as="offset" />
          </mxGeometry>
        </mxCell>
        <mxCell id="_MiyGDxBwrssd4ob-zck-34" style="edgeStyle=orthogonalEdgeStyle;rounded=0;orthogonalLoop=1;jettySize=auto;html=1;strokeWidth=1;endSize=10;startSize=10;endArrow=ERmandOne;endFill=0;startArrow=ERzeroToMany;startFill=0;" parent="1" source="_MiyGDxBwrssd4ob-zck-2" edge="1">
          <mxGeometry relative="1" as="geometry">
            <Array as="points">
              <mxPoint x="830" y="408" />
            </Array>
            <mxPoint x="970" y="408" as="targetPoint" />
          </mxGeometry>
        </mxCell>
        <mxCell id="_MiyGDxBwrssd4ob-zck-35" value="books/is booked by" style="edgeLabel;html=1;align=center;verticalAlign=middle;resizable=0;points=[];fontSize=15;" parent="_MiyGDxBwrssd4ob-zck-34" vertex="1" connectable="0">
          <mxGeometry x="-0.0093" y="4" relative="1" as="geometry">
            <mxPoint x="3" y="148" as="offset" />
          </mxGeometry>
        </mxCell>
        <mxCell id="_MiyGDxBwrssd4ob-zck-36" style="edgeStyle=orthogonalEdgeStyle;rounded=0;orthogonalLoop=1;jettySize=auto;html=1;entryX=0.5;entryY=1;entryDx=0;entryDy=0;endArrow=ERmandOne;endFill=0;startArrow=ERzeroToOne;startFill=0;endSize=10;startSize=10;" parent="1" source="_MiyGDxBwrssd4ob-zck-3" target="_MiyGDxBwrssd4ob-zck-13" edge="1">
          <mxGeometry relative="1" as="geometry">
            <Array as="points">
              <mxPoint x="325" y="945" />
            </Array>
          </mxGeometry>
        </mxCell>
        <mxCell id="_MiyGDxBwrssd4ob-zck-37" value="charges/is charged by" style="edgeLabel;html=1;align=center;verticalAlign=middle;resizable=0;points=[];fontSize=15;" parent="_MiyGDxBwrssd4ob-zck-36" vertex="1" connectable="0">
          <mxGeometry x="0.2695" y="-7" relative="1" as="geometry">
            <mxPoint x="-2" y="-130" as="offset" />
          </mxGeometry>
        </mxCell>
        <mxCell id="_MiyGDxBwrssd4ob-zck-38" style="edgeStyle=orthogonalEdgeStyle;rounded=0;orthogonalLoop=1;jettySize=auto;html=1;entryX=1;entryY=0.25;entryDx=0;entryDy=0;exitX=0.367;exitY=-0.001;exitDx=0;exitDy=0;exitPerimeter=0;endArrow=ERoneToMany;endFill=0;startArrow=ERmandOne;startFill=0;endSize=10;startSize=10;" parent="1" source="_MiyGDxBwrssd4ob-zck-16" target="_MiyGDxBwrssd4ob-zck-13" edge="1">
          <mxGeometry relative="1" as="geometry" />
        </mxCell>
        <mxCell id="_MiyGDxBwrssd4ob-zck-39" value="is paid by/pays" style="edgeLabel;html=1;align=center;verticalAlign=middle;resizable=0;points=[];fontSize=15;" parent="_MiyGDxBwrssd4ob-zck-38" vertex="1" connectable="0">
          <mxGeometry x="-0.1992" y="8" relative="1" as="geometry">
            <mxPoint as="offset" />
          </mxGeometry>
        </mxCell>
        <mxCell id="_MiyGDxBwrssd4ob-zck-40" style="edgeStyle=orthogonalEdgeStyle;rounded=0;orthogonalLoop=1;jettySize=auto;html=1;entryX=0.609;entryY=-0.008;entryDx=0;entryDy=0;entryPerimeter=0;endSize=10;startSize=10;endArrow=ERoneToMany;endFill=0;exitX=0;exitY=0.25;exitDx=0;exitDy=0;startArrow=ERoneToMany;startFill=0;" parent="1" source="_MiyGDxBwrssd4ob-zck-5" target="_MiyGDxBwrssd4ob-zck-16" edge="1">
          <mxGeometry relative="1" as="geometry" />
        </mxCell>
        <mxCell id="_MiyGDxBwrssd4ob-zck-41" value="is used by/uses" style="edgeLabel;html=1;align=center;verticalAlign=middle;resizable=0;points=[];fontSize=15;" parent="1" vertex="1" connectable="0">
          <mxGeometry x="529.9993299210544" y="604.9973888023676" as="geometry" />
        </mxCell>
        <mxCell id="_MiyGDxBwrssd4ob-zck-42" value="item" style="swimlane;childLayout=stackLayout;horizontal=1;startSize=50;horizontalStack=0;rounded=1;fontSize=15;fontStyle=0;strokeWidth=2;resizeParent=0;resizeLast=1;shadow=0;dashed=0;align=center;arcSize=4;whiteSpace=wrap;html=1;" parent="1" vertex="1">
          <mxGeometry x="429.89" y="200" width="160" height="160" as="geometry" />
        </mxCell>
        <mxCell id="_MiyGDxBwrssd4ob-zck-43" value="&lt;br style=&quot;font-size: 14px;&quot;&gt;+item number [R]&lt;br style=&quot;font-size: 14px;&quot;&gt;+item name [RU]&amp;nbsp;&lt;br style=&quot;font-size: 14px;&quot;&gt;+item price [R]&lt;br style=&quot;font-size: 14px;&quot;&gt;+item quantity [R]&lt;br style=&quot;font-size: 14px;&quot;&gt;&lt;div style=&quot;font-size: 14px;&quot;&gt;&lt;br style=&quot;font-size: 14px;&quot;&gt;&lt;/div&gt;" style="align=left;strokeColor=none;fillColor=none;spacingLeft=4;fontSize=14;verticalAlign=top;resizable=0;rotatable=0;part=1;html=1;" parent="_MiyGDxBwrssd4ob-zck-42" vertex="1">
          <mxGeometry y="50" width="160" height="110" as="geometry" />
        </mxCell>
        <mxCell id="_MiyGDxBwrssd4ob-zck-44" style="edgeStyle=orthogonalEdgeStyle;rounded=0;orthogonalLoop=1;jettySize=auto;html=1;endArrow=ERoneToMany;endFill=0;startArrow=ERzeroToMany;startFill=0;exitX=0;exitY=0.5;exitDx=0;exitDy=0;entryX=0.5;entryY=0;entryDx=0;entryDy=0;endSize=10;startSize=10;" parent="1" source="_MiyGDxBwrssd4ob-zck-43" target="_MiyGDxBwrssd4ob-zck-12" edge="1">
          <mxGeometry relative="1" as="geometry">
            <mxPoint x="210" y="500" as="targetPoint" />
            <Array as="points">
              <mxPoint x="325" y="305" />
            </Array>
          </mxGeometry>
        </mxCell>
        <mxCell id="_MiyGDxBwrssd4ob-zck-45" value="contains/belongs to" style="edgeLabel;html=1;align=center;verticalAlign=middle;resizable=0;points=[];fontSize=15;" parent="1" vertex="1" connectable="0">
          <mxGeometry x="329.9962585144831" y="339.9973107835036" as="geometry" />
        </mxCell>
        <mxCell id="_MiyGDxBwrssd4ob-zck-46" value="contains/belongs to" style="edgeLabel;html=1;align=center;verticalAlign=middle;resizable=0;points=[];fontSize=15;" parent="1" vertex="1" connectable="0">
          <mxGeometry x="619.9993299210544" y="889.9973888023676" as="geometry" />
        </mxCell>
      </root>
    </mxGraphModel>
  </diagram>
</mxfile>
